<svg xmlns="http://www.w3.org/2000/svg" xmlns:xlink="http://www.w3.org/1999/xlink" width="1520" height="262" viewBox="0 0 1520 262"><defs><style>.a{fill:#2dca61;}.b{clip-path:url(#a);}.c{fill:#fff;}.d{fill:none;stroke:#2dca8c;stroke-linecap:round;stroke-width:5px;}.e{fill:#00dffc;opacity:0.05;}.f{fill:#ff6037;}</style><clipPath id="a"><path class="a" d="M15,0H1505a15,15,0,0,1,15,15V247a15,15,0,0,1-15,15H15A15,15,0,0,1,0,247V15A15,15,0,0,1,15,0Z"/></clipPath></defs><path class="a" d="M15,0H1505a15,15,0,0,1,15,15V247a15,15,0,0,1-15,15H15A15,15,0,0,1,0,247V15A15,15,0,0,1,15,0Z"/><g class="b"><g transform="translate(709.742 -676.645)"><path class="c" d="M233.574,94.081c52.49,54.27,104.478,107.255,182.075,126.8a250.025,250.025,0,0,0,168.636-17.5C652.5,170.413,710.315,99.153,790.955,98.138a132.593,132.593,0,0,1,109.037,54.524c66.184,90.788,8.621,187.157-59.339,256.639-79.624,81.659-181.568,151.146-181.06,277.691.254,74.809,46.153,155.442,20.792,230.52-37.024,110.063-180.3,75.063-259.927,40.829-72.018-31.192-141.248-64.161-206.422-108.291-33.983-22.8-65.681-50.975-83.686-87.747-44.376-90.281,38.294-151.4,63.142-231.536a185.057,185.057,0,0,0-7.606-128.322C154.442,327.886,95.61,268.041,43.369,207.683-6.588,150.117-28.649,39.806,62.389,5.567c41.589-15.726,82.9,4.057,114.114,31.954,19.543,17.757,38.3,37.285,57.07,56.56Z" transform="translate(0 494.835)"/><g transform="translate(93.346 1273.632)"><path class="d" d="M0,135.167,119.948,0"/><path class="d" d="M0,135.167,119.948,0" transform="translate(0 68.471)"/><path class="d" d="M0,135.167,119.948,0" transform="translate(0 136.943)"/></g><path class="e" d="M573.437,45.222C726.856-67.883,945.7,44.46,938.35,235.167c0,2.534-.254,5.073-.254,7.352-14.455,240.935,325.375,282.51,131.6,397.138s12.953,195.271-181.568,272.365C693.4,989.1,583.074,1148.34,345.224,881.317c-216.571-243.2-380.14-146.835-338.8-354.024A606.652,606.652,0,0,0,18.854,410.131c.254-65.176,32.46-180.561,242.43-225.955A811.442,811.442,0,0,0,573.437,45.222Z" transform="translate(20.235 0)"/><path class="f" d="M573.437,45.222C726.856-67.883,945.7,44.46,938.35,235.167c0,2.534-.254,5.073-.254,7.352-14.455,240.935,325.375,282.51,131.6,397.138s12.953,195.271-181.568,272.365C693.4,989.1,583.074,1148.34,345.224,881.317c-216.571-243.2-380.14-146.835-338.8-354.024A606.652,606.652,0,0,0,18.854,410.131c.254-65.176,32.46-180.561,242.43-225.955A811.442,811.442,0,0,0,573.437,45.222Z" transform="translate(20.235 0)"/></g></g></svg>