<svg xmlns="http://www.w3.org/2000/svg" width="97" height="97" viewBox="0 0 97 97"><defs><style>.a{fill:#ffbe3d;}.b,.c,.d{fill:#fff;}.b{opacity:0;}.c{opacity:0.3;}</style></defs><g transform="translate(-0.015 -0.496)"><circle class="a" cx="48.5" cy="48.5" r="48.5" transform="translate(0.015 0.496)"/><g transform="translate(24.273 23.618)"><path class="b" d="M0,0H49.2V49.2H0Z"/><path class="c" d="M26.945,41H3.807C0,41,0,40.7,0,37.071V3.93C0,.3,0,0,3.807,0h14.1a3.072,3.072,0,0,1,1.986.729l9.765,8.26a3.067,3.067,0,0,1,1.092,2.347V37.071C30.752,40.7,30.752,41,26.945,41ZM10.25,30.75a2.05,2.05,0,0,0,0,4.1H16.4a2.05,2.05,0,1,0,0-4.1Zm0-8.2a2.05,2.05,0,1,0,0,4.1H24.6a2.05,2.05,0,0,0,0-4.1Z" transform="translate(6.15 2.05)"/><path class="d" d="M29,41H3.808C0,41,0,40.7,0,37.071V3.93C0,.3,0,0,3.808,0H19.96a3.076,3.076,0,0,1,1.985.729l9.765,8.26A3.062,3.062,0,0,1,32.8,11.336V37.071C32.8,40.7,32.8,41,29,41ZM6.149,26.648a2.05,2.05,0,1,0,0,4.1H12.3a2.05,2.05,0,1,0,0-4.1Zm0-8.2a2.05,2.05,0,0,0,0,4.1H20.5a2.05,2.05,0,1,0,0-4.1Z" transform="translate(10.25 6.149)"/></g></g></svg>