<svg xmlns="http://www.w3.org/2000/svg" width="33.999" height="34" viewBox="0 0 33.999 34"><defs><style>.a{fill:#858a8f;}</style></defs><g transform="translate(-566.001 -7290)"><path class="a" d="M583,7324h0a17.023,17.023,0,1,1,12.015-4.986A16.886,16.886,0,0,1,583,7324Zm2.573-14.62-.094.028a22.019,22.019,0,0,0-8.675,5.4,15.165,15.165,0,0,0-2.716,3.663,14.554,14.554,0,0,0,8.913,3.067,14.4,14.4,0,0,0,5.661-1.153l.009,0a60.5,60.5,0,0,0-3.1-11.006Zm5.818-.9a21.372,21.372,0,0,0-3.1.227,62.833,62.833,0,0,1,2.822,10.354,14.625,14.625,0,0,0,6.227-9.732l-.006,0A21.3,21.3,0,0,0,591.392,7308.479Zm-22.9-1.9-.006.441a14.45,14.45,0,0,0,3.732,9.711v.006l0,0a22.814,22.814,0,0,1,3.228-4.108,21.056,21.056,0,0,1,8.568-5.472c.215-.073.43-.132.573-.171-.348-.784-.745-1.613-1.178-2.463a53.618,53.618,0,0,1-14.727,2.061h-.192Zm22.42-.337a34.074,34.074,0,0,1,6.615.649,14.411,14.411,0,0,0-3.272-9.038l-.009-.009a19.461,19.461,0,0,1-8.11,5.724c.378.77.692,1.458.963,2.1.079.175.151.353.221.524l.008.02.008.02.076.186A34.169,34.169,0,0,1,590.907,7306.239Zm-14.08-12.361a14.633,14.633,0,0,0-8.042,10.161l0,.007a54.067,54.067,0,0,0,13.427-1.768,92.912,92.912,0,0,0-5.384-8.4h0Zm6.167-1.381a14.482,14.482,0,0,0-3.394.4v.007a77.447,77.447,0,0,1,5.413,8.5c5.2-1.948,7.38-4.913,7.612-5.244A14.469,14.469,0,0,0,582.994,7292.5Z"/></g></svg>