<svg xmlns="http://www.w3.org/2000/svg" width="97" height="97" viewBox="0 0 97 97"><defs><style>.a{fill:#377dff;}.b{fill:#ffbd32;}.c{fill:#ffc66c;}.d{fill:#fff;}.e{fill:#0e294d;}.f{fill:#113665;}</style></defs><g transform="translate(-0.015 -0.402)"><circle class="a" cx="48.5" cy="48.5" r="48.5" transform="translate(0.015 0.402)"/><g transform="translate(20.133 20.522)"><path class="b" d="M139.27,429.1a7.615,7.615,0,0,0-.039-.889,7.52,7.52,0,0,0-4.785-1.711H93.206v3.912a4.611,4.611,0,0,1-.059.732,26.522,26.522,0,0,1,.032,3.873h40.028a6.046,6.046,0,0,0,6.062-5.917Zm0,0" transform="translate(-82.639 -378.386)"/><path class="c" d="M450,221.329h4.513v-8.292a2.256,2.256,0,1,0-4.513,0Zm0,0" transform="translate(-399.234 -187.002)"/><path class="d" d="M169,195.244a3.984,3.984,0,0,0,.275,1.451l8.331,4.947a2.366,2.366,0,0,0,2.417,0l14.39-8.544a2.367,2.367,0,0,0,1.159-2.035v-6.878L169,183.941Zm0,0" transform="translate(-149.935 -163.191)"/><path class="d" d="M137.553,54l-16.574-9.841L95.946,59.019c-.034.02-.064.043-.1.066l17,10.1a2.082,2.082,0,0,0,2.126,0l22.572-13.4a1.036,1.036,0,0,0,0-1.782Zm0,0" transform="translate(-85.038 -39.175)"/><path class="b" d="M50.152,396.777a7.549,7.549,0,0,0-3.829-6.57v3.951A3.867,3.867,0,0,0,43,397.985a4.834,4.834,0,0,0,3.079,4.5,6.043,6.043,0,0,0,4.074-5.712Zm0,0" transform="translate(-38.149 -346.187)"/><path class="e" d="M33.06,17.574l6.326,3.756v6.542A3.511,3.511,0,0,0,41.1,30.877l14.39,8.544a3.493,3.493,0,0,0,3.569,0l14.39-8.544a3.511,3.511,0,0,0,1.711-3.005V21.329l5.129-3.045v4.561a3.39,3.39,0,0,0-2.256,3.19v8.292a1.128,1.128,0,0,0,1.128,1.128h4.512A1.128,1.128,0,0,0,84.8,34.327V26.035a3.389,3.389,0,0,0-2.256-3.19V15.713a2.145,2.145,0,0,0-1.059-1.861L58.91.45a3.208,3.208,0,0,0-3.278,0L33.06,13.852a2.164,2.164,0,0,0,0,3.721Zm9.188,11.363a1.243,1.243,0,0,1-.606-1.065v-5.2l13.989,8.306a3.17,3.17,0,0,0,.511.244v5.967ZM72.9,27.871a1.244,1.244,0,0,1-.606,1.065L58.4,37.186V31.219a3.171,3.171,0,0,0,.511-.244L72.9,22.669ZM82.54,33.2H80.284V26.035a1.128,1.128,0,0,1,2.256,0ZM56.783,2.39a.954.954,0,0,1,.974,0L80.2,15.713,57.758,29.035a.953.953,0,0,1-.974,0L34.345,15.713Zm0,0" transform="translate(-28.39)"/><path class="f" d="M49.08,371.5H25.157a1.128,1.128,0,1,0,0,2.256H28.88A6.431,6.431,0,0,1,35.3,380.18a4.919,4.919,0,0,1-4.913,4.914H11.176a7.142,7.142,0,0,0,1.955-4.914,8.66,8.66,0,0,0-2.849-6.424h4.872a1.128,1.128,0,1,0,0-2.256H4.451a.582.582,0,0,0-.059,0,1.127,1.127,0,0,0-.074,2.245.729.729,0,0,0,.133.008,6.431,6.431,0,0,1,6.424,6.424,4.919,4.919,0,0,1-4.913,4.914,3.709,3.709,0,0,1-3.705-3.705,2.742,2.742,0,0,1,2.738-2.739,1.968,1.968,0,0,1,1.965,1.965,1.128,1.128,0,0,0,2.256,0,4.227,4.227,0,0,0-4.222-4.222A5,5,0,0,0,0,381.389a5.968,5.968,0,0,0,5.961,5.961H50.59a7.178,7.178,0,0,0,7.17-7.17,8.69,8.69,0,0,0-8.68-8.68Zm1.51,13.594H35.6a7.14,7.14,0,0,0,1.956-4.914,8.66,8.66,0,0,0-2.849-6.424H49.079A6.431,6.431,0,0,1,55.5,380.18a4.919,4.919,0,0,1-4.913,4.914Zm0,0" transform="translate(0 -329.59)"/><path class="f" d="M169.331,371.831a1.128,1.128,0,1,0,.8-.331A1.137,1.137,0,0,0,169.331,371.831Zm0,0" transform="translate(-149.935 -329.591)"/></g></g></svg>