<svg xmlns="http://www.w3.org/2000/svg" xmlns:xlink="http://www.w3.org/1999/xlink" width="1015.06" height="1162.913" viewBox="0 0 1015.06 1162.913"><defs><style>.a,.b,.c{fill:#1d1f28;}.a,.bc{opacity:0.25;}.b{opacity:0.11;}.c{opacity:0.26;}.aa,.ab,.ac,.ad,.d,.e,.n,.t,.u,.v,.w,.x,.y,.z{mix-blend-mode:screen;isolation:isolate;}.d{fill:url(#a);}.e{fill:url(#b);}.f{fill:#002dc9;opacity:0.42;}.g{fill:#002eab;opacity:0.68;}.h{fill:none;stroke:#fff;stroke-linecap:round;stroke-linejoin:round;stroke-width:2px;opacity:0.32;}.i{fill:url(#c);}.j{fill:#00155c;}.k{fill:url(#d);}.l{fill:#00186b;}.m{fill:#e8ffff;}.n{fill:url(#e);}.o{fill:url(#g);}.bc,.p{fill:#0038ab;}.q{fill:#002a9c;}.r{fill:url(#i);}.s{fill:url(#j);}.t{fill:url(#k);}.u{fill:url(#l);}.v{fill:url(#m);}.w{fill:url(#n);}.x{fill:url(#o);}.y{fill:url(#p);}.z{fill:url(#q);}.aa{fill:url(#r);}.ab{fill:url(#s);}.ac{fill:url(#t);}.ad{fill:url(#u);}.ae{fill:#cad8eb;opacity:0.7;}.af{fill:url(#v);}.ag{fill:url(#w);}.ah{fill:#ffaa82;}.ai{fill:#d0e7f4;}.aj{fill:#002f8f;}.ak{fill:#ffc2b0;}.al{fill:url(#x);}.am{fill:url(#y);}.an{fill:url(#z);}.ao{fill:url(#aa);}.ap{fill:url(#ab);}.aq{fill:#fff;}.ar{fill:url(#af);}.as{fill:url(#ag);}.at{fill:url(#ah);}.au{fill:url(#ai);}.av{fill:url(#al);}.aw{fill:#0044ab;}.ax{fill:url(#an);}.ay{fill:url(#ao);}.az{fill:url(#ap);}.ba{fill:url(#aq);}.bb{fill:url(#ar);}.bd{fill:url(#at);}.be{fill:url(#au);}</style><linearGradient id="a" x1="0.925" y1="0.223" x2="0.074" y2="0.802" gradientUnits="objectBoundingBox"><stop offset="0"/><stop offset="0.353" stop-color="#000101"/><stop offset="0.48" stop-color="#000508"/><stop offset="0.57" stop-color="#000c14"/><stop offset="0.643" stop-color="#001625"/><stop offset="0.706" stop-color="#00243b"/><stop offset="0.762" stop-color="#003456"/><stop offset="0.812" stop-color="#004877"/><stop offset="0.858" stop-color="#005f9c"/><stop offset="0.901" stop-color="#007ac7"/><stop offset="0.939" stop-color="#0096f5"/><stop offset="0.946" stop-color="#009cff"/></linearGradient><linearGradient id="b" x1="-5.376" y1="-0.812" x2="-6.286" y2="-0.304" xlink:href="#a"/><linearGradient id="c" x1="1" y1="0.5" x2="0" y2="0.5" gradientUnits="objectBoundingBox"><stop offset="0" stop-color="#b57676"/><stop offset="0.191" stop-color="#bc7e7d"/><stop offset="0.5" stop-color="#d19690"/><stop offset="0.886" stop-color="#f3bdaf"/><stop offset="1" stop-color="#ffcaba"/></linearGradient><linearGradient id="d" x1="1" y1="0.5" x2="0" y2="0.5" gradientUnits="objectBoundingBox"><stop offset="0" stop-color="#0040b5"/><stop offset="0.411" stop-color="#002d8f"/><stop offset="0.909" stop-color="#00155c"/></linearGradient><radialGradient id="e" cx="0.5" cy="0.5" r="0.5" gradientTransform="matrix(0.707, -0.707, -0.707, -0.707, 0.387, 1.537)" gradientUnits="objectBoundingBox"><stop offset="0" stop-color="#009cff"/><stop offset="0.089" stop-color="#0097f8"/><stop offset="0.216" stop-color="#008ce5"/><stop offset="0.368" stop-color="#0079c5"/><stop offset="0.537" stop-color="#005e9a"/><stop offset="0.721" stop-color="#003c62"/><stop offset="0.915" stop-color="#00131f"/><stop offset="1"/></radialGradient><linearGradient id="g" x1="1" y1="0.5" x2="0" y2="0.5" gradientUnits="objectBoundingBox"><stop offset="0" stop-color="#ffc2b0"/><stop offset="0.239" stop-color="#f2b4a6"/><stop offset="0.681" stop-color="#d0928b"/><stop offset="1" stop-color="#b57676"/></linearGradient><linearGradient id="i" x1="1" y1="0.5" x2="0" y2="0.5" gradientUnits="objectBoundingBox"><stop offset="0" stop-color="#ffcaba"/><stop offset="0.165" stop-color="#f1baad"/><stop offset="0.723" stop-color="#c58985"/><stop offset="1" stop-color="#b57676"/></linearGradient><linearGradient id="j" x1="1" y1="0.5" x2="0" y2="0.5" gradientUnits="objectBoundingBox"><stop offset="0" stop-color="#ffcaba"/><stop offset="0.191" stop-color="#f7c1b2"/><stop offset="0.5" stop-color="#e2a99f"/><stop offset="0.886" stop-color="#c08280"/><stop offset="1" stop-color="#b57676"/></linearGradient><radialGradient id="k" cx="0.5" cy="0.5" r="0.5" gradientTransform="matrix(0.924, -0.383, -0.383, -0.924, 0.229, 1.153)" gradientUnits="objectBoundingBox"><stop offset="0" stop-color="#fff"/><stop offset="0.071" stop-color="#d4d4d4"/><stop offset="0.164" stop-color="#a2a2a2"/><stop offset="0.262" stop-color="#777"/><stop offset="0.363" stop-color="#525252"/><stop offset="0.469" stop-color="#343434"/><stop offset="0.579" stop-color="#1d1d1d"/><stop offset="0.698" stop-color="#0c0c0c"/><stop offset="0.829" stop-color="#030303"/><stop offset="1"/></radialGradient><radialGradient id="l" cx="0.5" cy="0.5" r="0.5" gradientTransform="matrix(0.23, -0.973, -0.973, -0.23, 0.872, 1.101)" xlink:href="#k"/><radialGradient id="m" cx="0.5" cy="0.5" r="0.5" gradientTransform="matrix(-1, 0, 0, 1, 1, 0)" xlink:href="#k"/><radialGradient id="n" cx="0.5" cy="0.5" r="0.5" gradientTransform="matrix(-1, 0, 0, 1, 1, 0)" xlink:href="#k"/><radialGradient id="o" cx="0.5" cy="0.5" r="0.5" gradientTransform="matrix(0.17, -0.985, -0.985, -0.17, 0.908, 1.078)" xlink:href="#k"/><radialGradient id="p" cx="0.5" cy="0.5" r="0.5" gradientTransform="matrix(0.23, -0.973, -0.973, -0.23, 0.872, 1.101)" xlink:href="#k"/><radialGradient id="q" cx="0.5" cy="0.5" r="0.5" gradientTransform="matrix(-1, 0, 0, 1, 1, 0)" xlink:href="#k"/><radialGradient id="r" cx="0.5" cy="0.5" r="0.5" gradientTransform="matrix(0.169, -0.986, -0.986, -0.169, 0.908, 1.077)" xlink:href="#k"/><radialGradient id="s" cx="0.5" cy="0.5" r="0.5" gradientTransform="matrix(-1, 0, 0, 1, 1, 0)" xlink:href="#k"/><radialGradient id="t" cx="0.5" cy="0.5" r="0.5" gradientTransform="matrix(-1, 0, 0, 1, 1, 0)" gradientUnits="objectBoundingBox"><stop offset="0" stop-color="#35ffff"/><stop offset="0.071" stop-color="#2cd4d4"/><stop offset="0.164" stop-color="#21a2a2"/><stop offset="0.262" stop-color="#187777"/><stop offset="0.363" stop-color="#115252"/><stop offset="0.469" stop-color="#0a3434"/><stop offset="0.579" stop-color="#061d1d"/><stop offset="0.698" stop-color="#020c0c"/><stop offset="0.829" stop-color="#000303"/><stop offset="1"/></radialGradient><radialGradient id="u" cx="0.5" cy="0.5" r="0.5" gradientTransform="matrix(0.707, -0.707, -0.707, -0.707, 4.379, 7.302)" xlink:href="#t"/><linearGradient id="v" x1="1" y1="0.5" x2="0" y2="0.5" gradientUnits="objectBoundingBox"><stop offset="0" stop-color="#b57676"/><stop offset="0.114" stop-color="#c08280"/><stop offset="0.5" stop-color="#e2a99f"/><stop offset="0.809" stop-color="#f7c1b2"/><stop offset="1" stop-color="#ffcaba"/></linearGradient><linearGradient id="w" x1="1" y1="0.5" x2="0" y2="0.5" gradientUnits="objectBoundingBox"><stop offset="0" stop-color="#ffcaba"/><stop offset="0.301" stop-color="#fcc7b7"/><stop offset="0.5" stop-color="#f4beb0"/><stop offset="0.668" stop-color="#e7afa4"/><stop offset="0.821" stop-color="#d49a93"/><stop offset="0.961" stop-color="#bd7f7d"/><stop offset="1" stop-color="#b57676"/></linearGradient><linearGradient id="x" x1="1" y1="0.5" x2="0" y2="0.5" gradientUnits="objectBoundingBox"><stop offset="0" stop-color="#4adeff"/><stop offset="0.025" stop-color="#49dbff"/><stop offset="0.595" stop-color="#3ca4ff"/><stop offset="0.871" stop-color="#388fff"/></linearGradient><linearGradient id="y" x1="1" y1="0.5" x2="0" y2="0.5" gradientUnits="objectBoundingBox"><stop offset="0" stop-color="#b57676"/><stop offset="0.039" stop-color="#bd7f7d"/><stop offset="0.179" stop-color="#d49a93"/><stop offset="0.332" stop-color="#e7afa4"/><stop offset="0.5" stop-color="#f4beb0"/><stop offset="0.699" stop-color="#fcc7b7"/><stop offset="1" stop-color="#ffcaba"/></linearGradient><linearGradient id="z" x1="1" y1="0.5" x2="0" y2="0.5" gradientUnits="objectBoundingBox"><stop offset="0" stop-color="#ffcaba"/><stop offset="0.194" stop-color="#f6c0b2"/><stop offset="0.514" stop-color="#e0a79e"/><stop offset="0.919" stop-color="#bc7e7d"/><stop offset="1" stop-color="#b57676"/></linearGradient><linearGradient id="aa" x1="1" y1="0.5" x2="0" y2="0.5" gradientUnits="objectBoundingBox"><stop offset="0" stop-color="#3db5ff"/><stop offset="0.133" stop-color="#41c1ff"/><stop offset="0.369" stop-color="#46d1ff"/><stop offset="0.637" stop-color="#49dbff"/><stop offset="1" stop-color="#4adeff"/></linearGradient><linearGradient id="ab" x1="1" y1="0.5" x2="0" y2="0.5" gradientUnits="objectBoundingBox"><stop offset="0" stop-color="#ffcaba"/><stop offset="0.201" stop-color="#f5bfb1"/><stop offset="0.55" stop-color="#dca39a"/><stop offset="1" stop-color="#b57676"/></linearGradient><linearGradient id="af" x1="1" y1="0.5" x2="0" y2="0.5" gradientUnits="objectBoundingBox"><stop offset="0" stop-color="#d5ffff"/><stop offset="0.139" stop-color="#c9fcff"/><stop offset="0.386" stop-color="#abf5ff"/><stop offset="0.709" stop-color="#7be9ff"/><stop offset="1" stop-color="#4adeff"/></linearGradient><linearGradient id="ag" x1="1" y1="0.5" x2="0" y2="0.5" gradientUnits="objectBoundingBox"><stop offset="0" stop-color="#b57676"/><stop offset="0.006" stop-color="#b67777"/><stop offset="0.151" stop-color="#d0928b"/><stop offset="0.308" stop-color="#e5a79b"/><stop offset="0.483" stop-color="#f3b6a7"/><stop offset="0.688" stop-color="#fcbfad"/><stop offset="1" stop-color="#ffc2b0"/></linearGradient><linearGradient id="ah" x1="1" y1="0.5" x2="0" y2="0.5" gradientUnits="objectBoundingBox"><stop offset="0.151" stop-color="#c7755c"/><stop offset="1" stop-color="#ffc2b0"/></linearGradient><linearGradient id="ai" x1="1" y1="0.5" x2="0" y2="0.5" gradientUnits="objectBoundingBox"><stop offset="0.091" stop-color="#00155c"/><stop offset="0.589" stop-color="#002f8f"/><stop offset="1" stop-color="#0043b5"/></linearGradient><linearGradient id="al" x1="1" y1="0.5" x2="0" y2="0.5" xlink:href="#ah"/><linearGradient id="an" x1="-0.417" y1="1.855" x2="0.258" y2="1.855" xlink:href="#af"/><linearGradient id="ao" x1="3.861" y1="20.406" x2="4.861" y2="20.406" gradientUnits="objectBoundingBox"><stop offset="0" stop-color="#4adeff"/><stop offset="0.871" stop-color="#3db5ff"/></linearGradient><linearGradient id="ap" x1="15.575" y1="2.374" x2="16.767" y2="2.374" xlink:href="#af"/><linearGradient id="aq" x1="13.267" y1="7.387" x2="15.035" y2="7.387" xlink:href="#ao"/><linearGradient id="ar" x1="1" y1="0.5" x2="0" y2="0.5" gradientUnits="objectBoundingBox"><stop offset="0" stop-color="#003bb5"/><stop offset="0.043" stop-color="#0036aa"/><stop offset="0.177" stop-color="#002a8d"/><stop offset="0.321" stop-color="#002077"/><stop offset="0.478" stop-color="#001a68"/><stop offset="0.657" stop-color="#00165e"/><stop offset="0.909" stop-color="#00155c"/></linearGradient><linearGradient id="at" x1="0.5" y1="0.915" x2="0.5" y2="0.137" gradientUnits="objectBoundingBox"><stop offset="0" stop-color="#009def"/><stop offset="0.043" stop-color="#0092eb"/><stop offset="0.28" stop-color="#005ed8"/><stop offset="0.502" stop-color="#0035c9"/><stop offset="0.703" stop-color="#0018be"/><stop offset="0.876" stop-color="#0006b8"/><stop offset="1" stop-color="#0000b6"/></linearGradient><linearGradient id="au" x1="0.5" y1="0.687" x2="0.5" y2="-0.492" xlink:href="#at"/></defs><g transform="translate(-10 -2529)"><g transform="translate(10 2529)"><path class="a" d="M1201.972,1377.042s-5.506-212.176-203.246-232.323S417.092,1117.106,375.115,866.65c-36.6-218.388-93.949-228.183-93.949-228.183l4.652,378.971s108.594,241.379,322.348,267.29,358.385-4.325,379.1,157.32l61.884-.406S1137.07,1425.38,1201.972,1377.042Z" transform="translate(-281.166 -279.135)"/><path class="b" d="M940.895,546.16s-22.711-58.984-99.47-88.637S508.146,468.3,468.955,329.474H342.517s60.738,208.494,217.369,190.143c291.8-34.186,374.351,210.5,374.351,210.5S894.76,634.544,940.895,546.16Z" transform="translate(-91.435 -329.474)"/><path class="c" d="M742.325,501.45S730,403.513,617.346,392.659,380.7,394.21,358.967,329.474H316.3s9.3,87.858,172.111,85.988,205.113,35.291,231.252,116.72Z" transform="translate(137.624 -329.474)"/><path class="d" d="M616.643,568.431l132.228-97.957,78.69,125.075L656.385,679.722Z" transform="translate(-296.885 -306.503)"/><path class="e" d="M660.164,994l-75.2-128.233L484.175,996.842l90.248,82.274Z" transform="translate(24.56 -242.105)"/><path class="f" d="M702.992,1246.5l103.537-59.777a13.2,13.2,0,0,0-.022-22.88l-104.148-59.868a33.679,33.679,0,0,0-33.678.064l-103.968,60.288a13.2,13.2,0,0,0,.021,22.856L667.475,1246.5A35.514,35.514,0,0,0,702.992,1246.5Z" transform="translate(-214.41 -204.028)"/><path class="g" d="M690.6,1208.256l67.1-38.743a8.557,8.557,0,0,0-.014-14.829l-67.5-38.8a21.828,21.828,0,0,0-21.827.042L600.975,1155a8.557,8.557,0,0,0,.014,14.813l66.59,38.445A23.018,23.018,0,0,0,690.6,1208.256Z" transform="translate(-208.125 -201.831)"/><path class="h" d="M1116.72,1152.219H917.512a33.088,33.088,0,0,0-33.088,33.087h0a34.317,34.317,0,0,1-34.316,34.318h-74.2" transform="translate(-771.258 -195.439)"/><path class="i" d="M900.559,1167.355l5.762-14.067c6.09-1.777,10.536-2,11.041,4.582l-5.88,13.884Z" transform="translate(-716.856 -195.439)"/><path class="j" d="M923.208,1187.455l-.1-21.536c-1.561-4.166-4.741-6.613-9.893-6.97-2.535.221-4.5.555-7.89,3.431-2.855,2.418-2.257,8.625-1.441,11.969l5.349,14.884c3.469,10.935,7.638,10.991,11.169,10.588h0C924.431,1198.982,924.477,1194.253,923.208,1187.455Z" transform="translate(-726.514 -194.342)"/><path class="k" d="M917.321,623.116a14.2,14.2,0,0,1,3.326-11.384,1.048,1.048,0,0,1,1.842-.047c1.967,1.962,3.525,4.454,5.655,6.175s5.19,2.506,7.305.727a21,21,0,0,1-7.432-12.521c3.574,4.078,7.62,8.409,12.666,8.735,2.59.167,5.133-.766,7.605-1.689l18.341-6.845c2.022-.755,9.755-7.18,13.15-9.22a1.313,1.313,0,0,1,.391-.326c.065-.053.124-.107.189-.161,13.7-11.191,31.492-2.671,31.292,10.69a1.326,1.326,0,0,1-1.939,1.125l-5.951-3.058s-1.335,1.23-3.305,3.022a7.924,7.924,0,0,1-.07,3.374c-1.015,4.755-4.2,8.45-7.248,11.885-1.811,2.039-3.141,5.205-4.952,7.244-.751.847-1.516,1.676-2.284,2.5l-.215.834s-.115-.087-.32-.252c-6.518,6.913-13.654,12.941-21.849,16.876-10.31,4.952-22.651,4.559-32.186-2.008a61.817,61.817,0,0,1-9.071-8.161,19.54,19.54,0,0,1-4.071-5.376,7.978,7.978,0,0,1-.1-6.865,14.9,14.9,0,0,0,5.618,4.15A12.669,12.669,0,0,1,917.321,623.116Z" transform="translate(-830.47 -286.805)"/><g transform="translate(185.366 837.144)"><g transform="translate(0)"><path class="l" d="M899,1049.342c0,21.958-4.934,55.329-15.276,74.23-7.335,13.4-19.08,31.529-26.156,45.741a2.234,2.234,0,0,0,1.125,3.055l11.825,5.023a2.229,2.229,0,0,0,2.877-1.076c7.147-14.583,18.04-32.6,25.582-46.49,10.713-19.735,20.471-41,23.664-63.417,1.48-10.385-14.571-13.757-16.064-3.274Z" transform="translate(-857.336 -1049.342)"/></g></g><g transform="translate(185.53 837.144)"><path class="j" d="M872.222,1169.313c7.075-14.212,18.821-32.336,26.155-45.741,10.343-18.9,15.276-52.272,15.276-74.23l6.537,11.9c-1.388,20.854-6.246,46.6-14.853,62.328-7.334,13.4-19.08,31.529-26.156,45.741-.575,1.155-5.834,3.055-5.834,3.055A2.233,2.233,0,0,1,872.222,1169.313Z" transform="translate(-871.986 -1049.342)"/></g><path class="m" d="M863.989,1109.868a154.436,154.436,0,0,0,14.042-45.89,7.988,7.988,0,0,0-1.643-6.318,7.885,7.885,0,0,0-.653-2.354,8.084,8.084,0,0,1,4.622,8.672c-3.193,22.413-12.951,43.683-23.664,63.417C856.693,1127.4,861.345,1115.418,863.989,1109.868Z" transform="translate(-628.936 -211.227)"/><circle class="n" cx="246.747" cy="246.747" r="246.747" transform="translate(468.452 890.82) rotate(-135)"/><path class="h" d="M702.33,1233.85l103.536-59.776a13.2,13.2,0,0,0-.021-22.88L701.7,1091.325a33.677,33.677,0,0,0-33.677.064l-103.969,60.289a13.2,13.2,0,0,0,.022,22.855l102.741,59.318A35.514,35.514,0,0,0,702.33,1233.85Z" transform="translate(-212.982 -206.089)"/><path class="i" d="M947.226,1099.495l15.091,1.826c3.328,5.4,4.723,9.628-1.489,11.861l-14.947-1.986Z" transform="translate(-817.351 -204.028)"/><g transform="translate(135.926 831.96)"><path class="j" d="M909.049,1127.5c11.066,0,22.487-3.279,31.594-15.476,17.374-23.268,28.458-59.832,28.444-61.617l-26.77-5.524c0,.386.107,38.786-14.124,57.844-8.574,11.481-20.09,10.182-36.685,6.888a120.594,120.594,0,0,0-12.625-2.063,1.809,1.809,0,0,0-1.944,1.722l-.61,11.9a1.8,1.8,0,0,0,1.614,1.894c3.137.315,6.75,1.033,10.538,1.785C894.68,1126.089,901.788,1127.5,909.049,1127.5Z" transform="translate(-876.326 -1044.885)"/></g><path class="j" d="M932.625,739.064c1.835-3.356-13.007,39.374-38.566,26.563-18.865-9.456-5.73-47.457-5.73-47.457Z" transform="translate(-712.875 -266.151)"/><path class="o" d="M346.961,962.308l10.6,9.974c-1.219,6.225-3.089,11.269-9.166,8.7l-10.36-10.987Z" transform="translate(497.109 -226.377)"/><g transform="translate(760.249 626.898)"><g transform="translate(0)"><path class="p" d="M424.655,990.761l6.64-12.244a3.584,3.584,0,0,0-.4-4.006c-30.51-36.465-29.274-37.578-35.64-49.648l-.281-.534A186.731,186.731,0,0,1,376.636,871.5a3.572,3.572,0,0,0-3.949-2.927l-13.21,1.576c-2.034.242-17.3-2.255-16.955-.236,1.522,9.027,20.439,37.559,34.366,63.954l.28.531c6.943,13.163,11.156,20.5,41.588,56.947A3.583,3.583,0,0,0,424.655,990.761Z" transform="translate(-342.517 -868.55)"/></g></g><path class="q" d="M402.441,981.75c-33.867-40.478-32.494-41.714-39.56-55.11l-.313-.592a208.461,208.461,0,0,1-20.052-56.97l4.865-.58a3.572,3.572,0,0,1,3.949,2.927,186.73,186.73,0,0,0,18.337,52.825l.281.534c6.366,12.069,5.13,13.183,35.64,49.648a3.582,3.582,0,0,1,.4,4.005l-2.72,5.017A3.964,3.964,0,0,0,402.441,981.75Z" transform="translate(443.038 -241.665)"/><g transform="translate(760.23 627.477)"><path class="m" d="M380.411,869.132c-.857.108-1.352.328-1.287.709,1.521,9.028,19,38.719,32.924,65.116l14.406,25.638a159.329,159.329,0,0,1-16.8-26.268l-.279-.53c-13.928-26.4-32.845-54.928-34.366-63.956C374.871,869.019,377.321,868.946,380.411,869.132Z" transform="translate(-375.005 -869.047)"/></g><path class="o" d="M404.862,944.149l10.6,9.974c-1.219,6.225-3.089,11.27-9.167,8.7l-10.359-10.987Z" transform="translate(371.872 -229.336)"/><g transform="translate(717.561 617.291)"><path class="p" d="M459.874,970.356l4.575-14.205a3.669,3.669,0,0,0-.7-3.5c-5.982-6.994-6.626-6.684-15.19-14.5-8.958-8.178-19.515-20.111-21.078-25.6,12.393-25.5,25.281-34.512,25.389-34.6l-19.046-17.659c-1.483,1.187-14.909,12.465-29.418,42.656-7.545,15.695,10.024,31.732,30.367,50.3,6.86,6.263,13.354,12.406,18.929,18.466A3.656,3.656,0,0,0,459.874,970.356Z" transform="translate(-402.619 -860.289)"/></g><path class="q" d="M444.654,958.08c-7.168-8.381-7.94-8.01-18.2-17.377-7.93-7.239-16.906-16.937-21.81-24.162a11.65,11.65,0,0,1-.674-11.993c10.15-19.213,20.113-29.472,24.827-33.669l5.6,5.192c-.108.085-13,9.1-25.389,34.6,1.563,5.49,12.12,17.425,21.078,25.6,8.564,7.817,9.208,7.508,15.19,14.5a3.667,3.667,0,0,1,.7,3.5l-1.254,3.893C444.7,958.138,444.678,958.107,444.654,958.08Z" transform="translate(333.417 -241.272)"/><path class="m" d="M429.827,902.945c14.51-30.19,27.936-41.468,29.418-42.656l1.8,1.664c-4.442,4.173-15.618,16.2-27.532,40.992-3.142,6.539-3.521,13.1.437,19.921,5.545,9.545,26.38,29.982,26.38,29.982C439.982,934.278,422.283,918.639,429.827,902.945Z" transform="translate(288.949 -242.998)"/><path class="j" d="M390.531,972.112l-4.62-10.083c4.345-.347,5.718-4.855,4.475-13.029l10.43,4.2a5.053,5.053,0,0,1,3.179,4.12l1.916,15.006.807,9.052c.228,2.556-1.451,7.951-4.17,8.735C402.548,990.114,396.324,992.952,390.531,972.112Z" transform="translate(392.259 -228.545)"/><path class="j" d="M331.4,991.266l-4.621-10.083c4.345-.347,5.718-4.855,4.475-13.029l10.43,4.2a5.053,5.053,0,0,1,3.179,4.12l1.916,15.006.807,9.052c.228,2.557-1.451,7.951-4.17,8.735C343.42,1009.268,337.2,1012.106,331.4,991.266Z" transform="translate(520.147 -225.425)"/><g transform="translate(140.659 411.84)"><path class="r" d="M883.912,710.85,929.423,734.2a13.353,13.353,0,0,1,6.141,17.222L904.409,822.79l-7.838-2.912c7.011-29.2,11.056-51.891,22.716-64.543l-48.453-32.044Z" transform="translate(-842.267 -679.183)"/><path class="s" d="M868.424,732.816l44.221,62.44,40.773,55.3,6.71-4.564-40.157-72.828-36.832-66.979Z" transform="translate(-862.91 -679.943)"/><path class="p" d="M929.351,700.238c.017-.094.034-.181.051-.26,0,0-2.023-20.23-16.245-15.7-3.713,1.184-15.477,2.45-18.277,5.519-5.994,6.566-15.874,4.216-18.326,21.262-1.119,7.774,1.033,20.768,3.721,24.255l26.955,40.475s15.685-35.551,57.136-37.4l-30.573-26.071A12.983,12.983,0,0,1,929.351,700.238Z" transform="translate(-876.251 -683.62)"/><path class="j" d="M856.281,825.88l-.319,6.183a5.075,5.075,0,0,0,2.183,4.434l17.386,12.013a3.544,3.544,0,0,0,3.331.377l2.055-.82a2.875,2.875,0,0,0,1.273-4.341l-10.31-14.44-5-5.505-11.226.141Z" transform="translate(-770.663 -660.785)"/><path class="j" d="M901.2,801.035l-2.643,4.607a5.342,5.342,0,0,0-.69,3.133c.51,5.715,2.219,24.1,3.142,24.494l2.035.866A2.876,2.876,0,0,0,907,831.953l2.859-17.511.334-7.426-7.307-7.077Z" transform="translate(-847.19 -664.67)"/></g><ellipse class="t" cx="8.471" cy="8.471" rx="8.471" ry="8.471" transform="translate(146.219 671.003) rotate(-157.5)"/><ellipse class="u" cx="8.471" cy="8.471" rx="8.471" ry="8.471" transform="translate(232.89 253.493) rotate(-103.282)"/><ellipse class="v" cx="5.466" cy="5.466" rx="5.466" ry="5.466" transform="translate(311.994 438.04)"/><ellipse class="w" cx="5.466" cy="5.466" rx="5.466" ry="5.466" transform="translate(612.897 668.129)"/><ellipse class="x" cx="8.471" cy="8.471" rx="8.471" ry="8.471" transform="matrix(-0.17, -0.985, 0.985, -0.17, 664.031, 453.295)"/><ellipse class="y" cx="8.471" cy="8.471" rx="8.471" ry="8.471" transform="translate(282.235 574.513) rotate(-103.282)"/><ellipse class="z" cx="8.471" cy="8.471" rx="8.471" ry="8.471" transform="translate(533.692 286.553)"/><ellipse class="aa" cx="8.471" cy="8.471" rx="8.471" ry="8.471" transform="translate(741.648 831.838) rotate(-99.74)"/><path class="ab" d="M652.976,1059.411a8.471,8.471,0,1,0,8.471-8.471A8.47,8.47,0,0,0,652.976,1059.411Z" transform="translate(-181.494 -211.938)"/><ellipse class="ac" cx="24.074" cy="24.074" rx="24.074" ry="24.074" transform="translate(353.446 795.709)"/><circle class="ad" cx="24.074" cy="24.074" r="24.074" transform="translate(682.028 332.829) rotate(-135)"/><ellipse class="ae" cx="9.763" cy="9.763" rx="9.763" ry="9.763" transform="translate(400.353 471.589)"/><g transform="translate(93.949 377.142)"><path class="af" d="M964.581,733.151a5.44,5.44,0,0,0,5.435-5.309c.589-24.586,9.152-45.851,26.181-65.007a5.439,5.439,0,1,0-8.129-7.228c-18.551,20.869-28.283,45.083-28.927,71.974a5.441,5.441,0,0,0,5.307,5.568Z" transform="translate(-959.14 -653.782)"/></g><g transform="translate(199.263 357.639)"><path class="ag" d="M879.365,681.032a17.084,17.084,0,0,0,3.7-.41c17.047-3.786,24.733-33.508,25.553-36.885a5.439,5.439,0,0,0-10.571-2.569c-2.107,8.623-9.12,27.014-17.344,28.836-4.6,1.021-9.757-3.986-13.266-8.366a5.439,5.439,0,0,0-8.49,6.8C865.657,676.81,872.507,681.032,879.365,681.032Z" transform="translate(-857.755 -637.012)"/></g><path class="ah" d="M922.578,672.036a8.867,8.867,0,0,1-2.81,1.068c-2.342.328-4.869-1.087-7.2-2.457a1.906,1.906,0,0,1-.593-.468,1.7,1.7,0,0,1-.133-1.5c.843-2.862,2.2-2.791,4.172-4.438.89-.744,1.678-1.621,2.557-2.38a26.555,26.555,0,0,1,4.517-2.941h0c1.9-1.061,8.84-4.7,10.256.5.612,2.248.409,3.724-.694,5.189a14.264,14.264,0,0,1-3.812,3.819A56.261,56.261,0,0,1,922.578,672.036Z" transform="translate(-746.17 -276.165)"/><path class="ah" d="M916.909,666.891a21.9,21.9,0,0,1,2.01-4.656,7.331,7.331,0,0,1,3.438-2.829c2.739-1.092,7.3-2.648,8.818-1.6,1.954,1.357-.042,3.632-1.262,5.031-2.427,2.783-6.519,4.74-9.829,5.977a1.231,1.231,0,0,1-1.349-.226c-.145.3,1.083-.5.961-.192C918.946,670.3,916.167,668.768,916.909,666.891Z" transform="translate(-750.357 -276.041)"/><path class="ai" d="M926.6,664.76l-3.225,3.386,6.263,7.351,3.7-3.759Z" transform="translate(-759.364 -274.852)"/><path class="p" d="M911.459,716.538c1.433,19.851,14.13,21.853,26.946,14.455s19.943-24.237,19.943-39.034c0,0-7.129-21.95-19.944-14.55S909.8,693.488,911.459,716.538Z" transform="translate(-770.377 -273.039)"/><path class="aj" d="M919.391,709c.006-.034.012-.064.016-.1.486-19.857,15.068-27.9,27.051-34.818,3.54-2.043,6.644-1.848,9.285-.494-.314.149-.629.309-.95.494-11.983,6.918-26.564,14.961-27.051,34.818,0,.034-.012.064-.016.1-1.119,7.774,1.033,20.768,3.721,24.255l22.468,33.736a51.835,51.835,0,0,0-3.846,6.739l-26.955-40.475C920.425,729.772,918.273,716.778,919.391,709Z" transform="translate(-776.785 -273.58)"/><g transform="translate(742.421 579.182)"><g transform="translate(0)"><path class="p" d="M396.2,850.23c-15.755,12.12-11.326,25.367.948,33.634,9.485,6.389,17.732,12.252,30.073,8.6,6.465-1.912,16.759-12.6,15.057-22.528-1.109-6.472-17.374-35.465-24.112-40C405.889,821.666,414.49,836.155,396.2,850.23Z" transform="translate(-386.064 -827.518)"/></g></g><path class="ak" d="M946.708,630.022s10.743,11.092,1.427,18.956-25.182-9.71-25.182-9.71C931.282,634.053,939.289,630.513,946.708,630.022Z" transform="translate(-777.472 -280.511)"/><path class="al" d="M889.124,678.15c8.281-13.827,17.266-27.227,30.978-35.249a4.868,4.868,0,0,1,1.932-.636c12.664-8.679,22.223-10.1,31.008-11.685,4.356-.787,11.886-3.47,16.625-2.754,2.3-.234,4.482.486,5.491,2.63a200.747,200.747,0,0,0,20.479,34.769c4.146,5.57-7.275,13.974-11.417,8.409-5.23-7.026-6.957-11.638-11.17-19.233-.027.21.559,3.246.522,3.406l1.73,4.5s-5.49,32.532-5.966,36.245c0,0-16.2,11.966-36.97-.4l-8.672-25.483-4.552-7.231c-.716-.438-2.558-.2-3.863.052-5.9,6.453-10.732,14.025-15.407,21.829C896.128,693.569,885.392,684.383,889.124,678.15Z" transform="translate(-781.822 -280.888)"/><g transform="translate(656.462 523.314)"><path class="am" d="M494.216,827.03c8.378,0,13.375-6.3,16.727-10.523a31.223,31.223,0,0,1,2.384-2.8,6.113,6.113,0,0,0-3.432-11.716c-3.747.887-6.179,3.95-8.529,6.912-2.811,3.543-4.96,6.048-7.458,5.888-2.905-.181-11.542-3.7-28.965-32.377a6.112,6.112,0,1,0-10.448,6.347C470.137,814.512,482.058,826.3,493.147,827,493.508,827.018,493.865,827.03,494.216,827.03Zm18.5-13.14h0Z" transform="translate(-453.606 -779.477)"/></g><g transform="translate(775.074 547.455)"><path class="an" d="M359.534,808.646c7.073,6.737,13.674,10.387,21.161,16.724,16.668,14.106,21.963,30.851,22.968,48.988.357,6.444,11.066,5.446,10.707-1.037-1.075-19.389-6.459-38.526-20.622-52.487a86.49,86.49,0,0,0-15.595-11.88c-3.734-2.293-8.159-4.261-11.329-7.281-4.68-4.457-12.009,2.479-7.29,6.974Z" transform="translate(-358.011 -800.236)"/></g><path class="ao" d="M382.593,806.637l16.6-22.862a8.392,8.392,0,0,1,2.872-2.487c6.459-5.323,16.669-3.905,24.855.258,5.882,2.992,19.035,6.141,28.88,12.15a29.873,29.873,0,0,1,4.2,2.985l20.474,17.958c5.312,4.2-5.289,19.415-12.2,14.906l-6.608-6.891c5.929,19.5,12.461,40.518,15.555,55.378C474.03,891,447.05,885.3,420.878,873.749c1.557,1.279-7.481-34.735-17.35-64.56l-4.1,6.814C396.237,821.975,379.382,814.242,382.593,806.637Z" transform="translate(321.411 -256.431)"/><g transform="translate(228.643 670.335)"><path class="ap" d="M779.848,1009.92a6.453,6.453,0,0,0,1.778-.25c73.623-20.948,109.353-91.4,110.838-94.4a6.487,6.487,0,0,0-11.619-5.773c-.455.909-34.889,68.376-102.77,87.691a6.488,6.488,0,0,0,1.772,12.728Z" transform="translate(-773.363 -905.902)"/></g><path class="j" d="M971.5,1122.369l16.848-10.689a13.166,13.166,0,0,0,1.9-11.807c-3.1-1.009-3.1-1.009-6.832-2.427-3.135-1.192-7.747,1.971-10.016,4.063l-9.358,10.658c-7.075,7.468-5.309,10.766-3.461,13.363h0C962.988,1128.331,966.718,1126.315,971.5,1122.369Z" transform="translate(-858.255 -204.404)"/><g transform="translate(147.665 728.417)"><path class="i" d="M949.194,956.232c-17.509,6.681-32.857,20.229-46.707,32.515-2.985,2.648-4.616,4.335-6,8.036-4.609,12.315-10.548,25.539-15.248,37.994-2.24,5.934,6.561,10.355,8.939,4,5.183-13.858,9.98-21.7,14.878-33.821.875-2.163,2.725-6.811,3.576-7.569,13.314-11.858,28-25.086,44.85-31.514,6.36-2.427,2.033-12.049-4.289-9.637Z" transform="translate(-880.877 -955.847)"/></g><path class="aq" d="M901.361,1018.338A13.677,13.677,0,0,1,894.3,1028.5c-3.579,1.691-6.219-.115-5.9-4.036a13.677,13.677,0,0,1,7.062-10.162C899.045,1012.611,901.683,1014.417,901.361,1018.338Z" transform="translate(-686.714 -218.01)"/><path class="l" d="M866.643,1066.732h0c1.369,1.815-4.437-6.943-2.593-5.611,3.84,2.774,25.252,20.046,29.965,20.513,5.693.563,2.822-5.22,7.379-8.68,4.324-3.282,5.754-9.073,6.59-14.436a9.381,9.381,0,0,0-.049-4.453,9.537,9.537,0,0,0-2.975-3.775c-9.448-8.454-27.713-28.957-42.285-24.078C845.837,1031.848,860.089,1058.047,866.643,1066.732Z" transform="translate(-654.459 -216.087)"/><path class="ap" d="M857.956,960.007l5.837-18.684,10.97,8.768-4.923,17.045C869.267,969.922,856.585,966.4,857.956,960.007Z" transform="translate(-624.592 -229.796)"/><path class="al" d="M820.537,981.11c10.41-7.378,25.814-20.491,36.776-26.188,7.683-5.517,18.736-2.323,26.96,3.658,5.627,4.092,12.628,9.16,17.7,12.75L930.625,958.7c6.919-4.927,17.624,8.608,9.615,15.17l-30.59,17.362a13.607,13.607,0,0,1-1.7.813c-.167.916-.35,1.763-.529,2.516-2.569,24.738-7.937,47.122-7.447,77.794l-.152-.063c-.078,1.764-1.483,3.533-4.1,4.771h0c-4.669,2.207-11.5,1.93-15.175-.616-9.208-4.242-18.074-8.693-25.048-14.3a43.316,43.316,0,0,1-9.78-10.079,4.564,4.564,0,0,1-2.242-3.669l-.007,0c-2.444-1.193.861-35.97,5.24-65.514l-17.55,10.6c-2.8,1.918-7.821,4.568-9.283,2.993l-4.831-7.76C815.264,986.813,816.963,983.118,820.537,981.11Z" transform="translate(-644.631 -228.045)"/><path class="ar" d="M546.081,906.217Z" transform="translate(-74.49 -279.135)"/><path class="as" d="M430.8,789.178l-7.033-19.827,14.2,2.79,5.725,16.191C444.865,790.951,435.624,799.194,430.8,789.178Z" transform="translate(311.172 -257.813)"/><path class="at" d="M431.589,781.194s6.1-1.047,6.113-1.1c0,0-1.632,4.3-4.34,6.136Z" transform="translate(308.175 -256.063)"/><path class="au" d="M429.43,762.116c-4.578.2-9.742-.779-13.3-4.188-3.857-3.7-4.407-11.52.607-13.369,2.711-1,8.4-.545,13.258-.494,13.793.147,24.047,11.536,18.865,25.186,0,0-5.363,15.293-15.09,17.072a2.587,2.587,0,0,1-2.984-2.937h0s6.17-3.881,1.252-10.612c-1.132-1.548-.593-3.811.454-5.961A3.273,3.273,0,0,0,429.43,762.116Z" transform="translate(317.137 -261.956)"/><path class="am" d="M422.9,769.943l5.677-14.962,10.489,5.006c14.445-2.64,3.5,13.228,10.886,12.4,2.108-.54,3.685.69,3.552,2.846a6.382,6.382,0,0,1-4.252,5.258,3.175,3.175,0,0,1-2.41-.121,11.134,11.134,0,0,1-13.8,5.3l-3.705-1.407A11.13,11.13,0,0,1,422.9,769.943Z" transform="translate(303.309 -260.154)"/><path class="aq" d="M879.679,967.882c-12.879-3.034-22.362,4.441-23.932-14.6h0c2-1.023,4.889-1.315,6.012.63,1.971,3.418,5.527,5.354,11.394,6.705,1.551.357,3.077.788,3.825,2.193Z" transform="translate(-627.06 -227.978)"/><path class="ag" d="M938.722,638.3l5.124-19.78-12.4,3.925-4.168,16.152C926.394,641.227,935.014,648.4,938.722,638.3Z" transform="translate(-774.344 -282.385)"/><path class="av" d="M938.088,631.609c-2.811,0-5.863-2.4-8.029-5.559,0,0,2.875,8.647,6.72,9.036Z" transform="translate(-771.888 -281.158)"/><path class="ag" d="M916.444,620.86a2.552,2.552,0,0,1,3.96-1.974l17.541-15.52,6.34,3.258,2.336,15.507a10.825,10.825,0,0,1-9.065,12.282l-3.811.574a10.829,10.829,0,0,1-12.028-7.876,3.082,3.082,0,0,1-2.314-.38A6.2,6.2,0,0,1,916.444,620.86Z" transform="translate(-764.651 -284.854)"/><path class="aq" d="M822.45,955.79c.252-.527,10.957-.352,11.8,14.411a2.126,2.126,0,0,1-.621,1.609l-5.353,5.383a2.129,2.129,0,0,1-3.312-.369l-9.924-15.789a2.129,2.129,0,0,1,1.129-3.153Z" transform="translate(-533.917 -227.463)"/><path class="aq" d="M921.3,994.856c-.25.533-11.093.428-11.919-14.617a1.49,1.49,0,0,1,.423-1.115l6.1-6.224a1.467,1.467,0,0,1,2.283.237l10.937,17.133a1.466,1.466,0,0,1-.763,2.177Z" transform="translate(-739.107 -224.723)"/><g transform="translate(283.314 252.742)"><g transform="translate(0)"><path class="aw" d="M783.707,555.292c-2.3.259-11.136,4.139-13.155,5.916-6.825,4.388-11.887,13.249-13.767,25.923-4.121,27.808,8.62,63.366,28.456,79.421,9.246,7.483,18.4,9.4,25.959,6.511.751-.119,10.122-3.739,10.122-3.739a25.078,25.078,0,0,0,6.5-6.732c3.909-4.9,6.761-11.862,8.068-20.677,4.121-27.808-8.618-63.366-28.455-79.421C799.078,555.731,790.8,553.524,783.707,555.292Z" transform="translate(-751.374 -545.522)"/><ellipse class="aq" cx="59.835" cy="33.851" rx="59.835" ry="33.851" transform="translate(34.297 134.582) rotate(-106.654)"/><ellipse class="ax" cx="59.835" cy="33.851" rx="59.835" ry="33.851" transform="translate(36.065 134.053) rotate(-106.654)"/><ellipse class="ay" cx="47.374" cy="26.801" rx="47.374" ry="26.801" transform="translate(40.582 119.937) rotate(-106.654)"/></g><g transform="matrix(0.93, -0.198, 0.287, 0.917, 2.719, 16.799)"><path class="aq" d="M13.512,50.477a5.465,5.465,0,0,1-4.39-3.107,12.411,12.411,0,0,1-1.4-5.645,5.551,5.551,0,0,1,.229-1.772,2.436,2.436,0,0,1,.648-1.07,1.22,1.22,0,0,1,1.019-.29,1.6,1.6,0,0,1,1.024.556,3.45,3.45,0,0,1,.661,1.24,6.191,6.191,0,0,1,.25,1.834,5.05,5.05,0,0,1-.339,2.068,1.712,1.712,0,0,1-.824.962A3.157,3.157,0,0,0,11.7,46.863a4.418,4.418,0,0,0,1.791.684,2.537,2.537,0,0,0,2.244-.89,6.729,6.729,0,0,0,1.465-3.3,25.008,25.008,0,0,0,.449-5.178,25.24,25.24,0,0,0-.558-5.507,8.545,8.545,0,0,0-1.537-3.579,3.452,3.452,0,0,0-2.178-1.382,2.7,2.7,0,0,0-1.91.877l-1.4,1.056-.007-1.24L16.3,14.353l-8.75-1.141.089,15.44a9.423,9.423,0,0,0,.5,3.218q.486,1.3,1.476,1.431a1.65,1.65,0,0,0,1.464-.71,7.4,7.4,0,0,0,1.2-2.039.794.794,0,0,1,.158-.346.223.223,0,0,1,.207-.114q.176.023.417.364a2.518,2.518,0,0,1,.23,1.072q-.014.28-.075.779a6.915,6.915,0,0,1-1.482,3.072,2.387,2.387,0,0,1-2.1.852,4.8,4.8,0,0,1-3.939-2.485,12.08,12.08,0,0,1-1.117-5.495l-.089-15.44L.017,12.229,0,9.355l4.471.583L4.433,3.4,3.4,1.465,3.392,0l2.97.387,1.124,1.16.051,8.79L19.1,11.79l1.161,2.178L13.241,25.553a2.8,2.8,0,0,1,1.338-.388A4.847,4.847,0,0,1,17.173,26.8a9.653,9.653,0,0,1,2.256,3.785,20.512,20.512,0,0,1,1.03,4.357,32,32,0,0,1,.261,3.638,23.689,23.689,0,0,1-.823,6.593A7.721,7.721,0,0,1,17.3,49.451,5.072,5.072,0,0,1,13.512,50.477Z" transform="translate(0.134 -0.545) scale(0.97 1)"/></g></g><g transform="translate(576.409 727.794)"><g transform="translate(0 0)"><path class="aw" d="M561.581,976.764c1.937,1.262,8.1,8.689,9.11,11.183,4.135,6.981,4.691,17.17.692,29.343-8.774,26.707-36.1,52.788-61.024,58.254-11.619,2.548-20.664.163-26.125-5.81-.619-.442-7.374-7.878-7.374-7.878a25.1,25.1,0,0,1-2.793-8.929c-1.3-6.135-.729-13.635,2.053-22.1,8.774-26.706,36.1-52.788,61.024-58.254C547.643,970.27,556.029,972,561.581,976.764Z" transform="translate(-453.267 -952.663)"/><ellipse class="aq" cx="33.851" cy="59.835" rx="33.851" ry="59.835" transform="translate(50.636 134.804) rotate(-136.727)"/><ellipse class="az" cx="33.851" cy="59.835" rx="33.851" ry="59.835" transform="translate(49.293 133.539) rotate(-136.727)"/><ellipse class="ba" cx="26.801" cy="47.374" rx="26.801" ry="47.374" transform="matrix(-0.728, -0.685, 0.685, -0.728, 51.579, 118.895)"/></g><g transform="matrix(0.649, 0.696, -0.638, 0.718, 77.798, -5.767)"><path class="aq" d="M13.512,50.477a5.465,5.465,0,0,1-4.39-3.107,12.411,12.411,0,0,1-1.4-5.645,5.551,5.551,0,0,1,.229-1.772,2.436,2.436,0,0,1,.648-1.07,1.22,1.22,0,0,1,1.019-.29,1.6,1.6,0,0,1,1.024.556,3.45,3.45,0,0,1,.661,1.24,6.191,6.191,0,0,1,.25,1.834,5.05,5.05,0,0,1-.339,2.068,1.712,1.712,0,0,1-.824.962A3.157,3.157,0,0,0,11.7,46.863a4.418,4.418,0,0,0,1.791.684,2.537,2.537,0,0,0,2.244-.89,6.729,6.729,0,0,0,1.465-3.3,25.008,25.008,0,0,0,.449-5.178,25.24,25.24,0,0,0-.558-5.507,8.545,8.545,0,0,0-1.537-3.579,3.452,3.452,0,0,0-2.178-1.382,2.7,2.7,0,0,0-1.91.877l-1.4,1.056-.007-1.24L16.3,14.353l-8.75-1.141.089,15.44a9.423,9.423,0,0,0,.5,3.218q.486,1.3,1.476,1.431a1.65,1.65,0,0,0,1.464-.71,7.4,7.4,0,0,0,1.2-2.039.794.794,0,0,1,.158-.346.223.223,0,0,1,.207-.114q.176.023.417.364a2.518,2.518,0,0,1,.23,1.072q-.014.28-.075.779a6.915,6.915,0,0,1-1.482,3.072,2.387,2.387,0,0,1-2.1.852,4.8,4.8,0,0,1-3.939-2.485,12.08,12.08,0,0,1-1.117-5.495l-.089-15.44L.017,12.229,0,9.355l4.471.583L4.433,3.4,3.4,1.465,3.392,0l2.97.387,1.124,1.16.051,8.79L19.1,11.79l1.161,2.178L13.241,25.553a2.8,2.8,0,0,1,1.338-.388A4.847,4.847,0,0,1,17.173,26.8a9.653,9.653,0,0,1,2.256,3.785,20.512,20.512,0,0,1,1.03,4.357,32,32,0,0,1,.261,3.638,23.689,23.689,0,0,1-.823,6.593A7.721,7.721,0,0,1,17.3,49.451,5.072,5.072,0,0,1,13.512,50.477Z" transform="translate(0.134 -0.545) scale(0.97 1)"/></g></g><path class="m" d="M449.383,871.445s-11.4-46.619-17.794-65.371c0,0,2.035-12.065,3.489-14.1,0,0-.727,10.466.581,16.426.759,3.457,17.312,64.589,17.312,64.589Z" transform="translate(292.906 -254.127)"/><path class="m" d="M436.349,770.074l6.194-16.323,1.469,2.258-5.337,14.064a11.131,11.131,0,0,0,6.438,14.314l3.705,1.406a11.023,11.023,0,0,0,2.76.644,10.994,10.994,0,0,1-5.085-.644l-3.705-1.406A11.131,11.131,0,0,1,436.349,770.074Z" transform="translate(289.6 -260.354)"/><g transform="translate(729.762 483.433)"><path class="m" d="M431.354,745.183c-1.862,3.145-.552,8.613,2.372,11.416,3.555,3.409,8.736,4.633,13.3,4.186,1.255-.122,1.97,1.659-.49,1.768-4.577.2-11.079-.7-14.634-4.11C428.278,754.972,427.281,747.571,431.354,745.183Z" transform="translate(-428.713 -745.183)"/></g><path class="m" d="M399.812,821.63s-3.343,3.406-6.676,1.979-4.246-3.679-6.079-5.59c0,0,4.778,4.817,7.616,4.671A17.97,17.97,0,0,0,399.812,821.63Z" transform="translate(397.852 -249.884)"/><path class="m" d="M421.981,886.287c-1.757-3.429-7.283-.027-9.779-9.361-3.389-7.865-2.418-8.251-1.427-7.865,0,0,2.713,11.641,6.3,12.32s7.273,2.474,8.393,4.906Z" transform="translate(345.699 -241.585)"/><path class="m" d="M918.68,731.382s-25.548,1.387-42.429,17.761c0,0,7.226-19.04,36.907-22.47Z" transform="translate(-689.906 -264.765)"/><path class="m" d="M924.725,633.04l3.811-.574a10.825,10.825,0,0,0,9.065-12.281l-2.228-14.791,1.678.912L939.415,622a10.824,10.824,0,0,1-9.065,12.281l-3.811.574a10.816,10.816,0,0,1-10.106-4.042A10.758,10.758,0,0,0,924.725,633.04Z" transform="translate(-757.49 -284.523)"/><path class="m" d="M881,710.885l21.531,18.36-5.23.8Z" transform="translate(-679.278 -267.337)"/><path class="bb" d="M849.432,931.1c.017-.122.027-.238.045-.362.044-.293.1-.562.15-.844-3,.673-7.685-.426-7.685-.426a40.362,40.362,0,0,0,9.694-6.2v.015c5.46-11.229,18.083-6.818,27.068-6.939,4.676-.064,8.878.146,13.28,4.775,4.005,4.209,1.441,9.1-4.8,9.152-2.476.02-1.9,6.732-2.578,8.963-1.214,3.965-3.891,5.733-5.144,9.572-1.185,3.632-7.125,8.989-10.709,9.108-6.384.212-9.058-2.235-9.058-2.235s-10.407-4.881-10.607-19.35c-1.776-.264-6.283-2.989-6.283-2.989A8.826,8.826,0,0,0,849.432,931.1Z" transform="translate(-625.235 -233.988)"/><path class="ap" d="M852.335,949.074a3.19,3.19,0,0,1-.366-.044c-1.983-.487-3.5-2.9-3.506-5.807-.012-3.265,1.876-5.918,4.214-5.927,1.844-.006,3.4,1.644,3.992,3.939a14.674,14.674,0,0,0,1.929-3.905c.683-2.23.1-8.943,2.578-8.963a8.532,8.532,0,0,0,4.335-1.089c1.948,7.8,1.1,16.439-1.2,25.519-.944,6.793-9.856,10.356-16.584,6.449a33.08,33.08,0,0,1-4.652-3.263l-.012-.012C845.979,955.648,850.208,952.234,852.335,949.074Z" transform="translate(-599.23 -232.084)"/><path class="m" d="M852.561,952.8c2.222-8.774,3.089-17.139,1.387-24.728l1.947-.793c1.949,7.8,1.1,16.44-1.2,25.521-.723,5.2-6.117,8.494-11.625,8.005C847.769,960.4,851.932,957.325,852.561,952.8Z" transform="translate(-589.621 -232.084)"/><path class="m" d="M858.051,965.84l4.72,3.382-2.36,1.414-8.724-5.616Z" transform="translate(-605.432 -225.936)"/><path class="m" d="M858.782,986.448l-5.975,47.12s-1.828,24.9-2,33.191a6.574,6.574,0,0,1-4.255,4.709s1.668-2.393,1.764-9.565c.086-6.387,2.394-38.734,5.466-61.324.659-4.85,2.945-9.689,5-14.13Z" transform="translate(-595.468 -222.445)"/><path class="h" d="M615.549,1086.3H456.39a50.047,50.047,0,0,0-50.047,50.047h0a26.468,26.468,0,0,1-26.468,26.468h-178.9" transform="translate(398.511 -206.177)"/><path class="h" d="M689.669,1199.588l65.037-37.549a8.294,8.294,0,0,0-.013-14.372l-65.422-37.608a21.157,21.157,0,0,0-21.156.04l-65.308,37.871a8.293,8.293,0,0,0,.013,14.356l64.538,37.262A22.311,22.311,0,0,0,689.669,1199.588Z" transform="translate(-207.281 -202.766)"/><path class="bc" d="M913.8,979.563l1.378-7.1-18.868,12.423,2.417,3.786Z" transform="translate(-709.729 -224.723)"/><path class="bc" d="M959.81,670.879s-11.971,8.9-20.676,0-14.422-10.73-14.422-10.73l4.552,7.231,8.672,25.483a54.962,54.962,0,0,0,6.1,3.021s-9.243-16.46-6.917-20.143S946.26,686.077,959.81,670.879Z" transform="translate(-787.392 -275.603)"/><path class="bc" d="M922.47,664.189s-2.075,6.068-7.568,6.8a9.174,9.174,0,0,1-8.447-3.514s8.072,6.347,15.7-6.251Z" transform="translate(-728.819 -275.428)"/><path class="m" d="M905.012,640.935c.52-1.192,1.637-.909,2.185.27,2.467,5.315,7.31,16.187,7.6,20.233.391,5.445-5.77,12.819-6.275,33.069l-1.577,2.014s-1.159-18.637,4.511-30.34c0,0,2.422-7.43-6.176-23.768A1.906,1.906,0,0,1,905.012,640.935Z" transform="translate(-719.431 -278.858)"/><path class="bc" d="M386.971,816.375s14.829,47.118,15.555,55.378c0,0-.6,5.973-9.023,7.044,0,0,4.661-3.719,2.19-11.354S383.482,820.039,386.971,816.375Z" transform="translate(396.105 -250.152)"/></g><g transform="matrix(0.999, -0.035, 0.035, 0.999, -1863.511, 1479.387)"><g transform="translate(2115.662 1521.938)"><path class="bd" d="M1476.066,874.962c-43.647,1.7-77.489-43.044-104.836-102.057s-39.61-113.782-10.088-145.981l-2.156-4.652,35.307-16.36q2.09-1.16,4.278-2.178c48.074-22.278,113.779,17.337,146.752,88.49s20.731,146.89-27.341,169.171L1478.3,879.781Z" transform="translate(-1270.575 -582.367)"/><ellipse class="be" cx="95.941" cy="141.992" rx="95.941" ry="141.992" transform="translate(0 80.682) rotate(-24.865)"/></g><g transform="matrix(0.942, 0.132, -0.044, 0.96, 2216.2, 1570.592)"><path class="aq" d="M37.3,152.546q-8.287-1.183-12.119-9.389a40.383,40.383,0,0,1-3.878-17.06,18.262,18.262,0,0,1,.632-5.354,7.506,7.506,0,0,1,1.789-3.233,3.172,3.172,0,0,1,2.814-.876,4.322,4.322,0,0,1,2.828,1.681,10.769,10.769,0,0,1,1.826,3.749,20.366,20.366,0,0,1,.69,5.543,16.558,16.558,0,0,1-.936,6.248,5.05,5.05,0,0,1-2.275,2.908,9.4,9.4,0,0,0,3.637,4.859,11.58,11.58,0,0,0,4.944,2.068q3.438.491,6.2-2.689t4.044-9.973a82.534,82.534,0,0,0,1.238-15.649A83.236,83.236,0,0,0,47.2,98.738q-1.448-7.1-4.242-10.816t-6.012-4.176q-2.116-.3-5.272,2.651l-3.86,3.192-.02-3.746L45.009,43.377,20.852,39.928,21.1,86.589a30.944,30.944,0,0,0,1.372,9.726q1.343,3.935,4.076,4.326,2.115.3,4.041-2.146A22.905,22.905,0,0,0,33.9,92.331a2.506,2.506,0,0,1,.435-1.045q.262-.388.571-.343.485.069,1.152,1.1a8.224,8.224,0,0,1,.634,3.238q-.04.846-.208,2.353-1.465,6.257-4.092,9.284t-5.8,2.575q-7.846-1.12-10.875-7.509T12.635,85.38l-.246-46.661L.046,36.957,0,28.271l12.343,1.762-.1-19.754L9.389,4.427,9.365,0l8.2,1.171,3.1,3.506.14,26.566L52.72,35.63l3.206,6.583L36.554,77.225a7.251,7.251,0,0,1,3.694-1.174q3.174.453,7.162,4.936a29.819,29.819,0,0,1,6.227,11.44,66.947,66.947,0,0,1,2.845,13.169,105.736,105.736,0,0,1,.719,10.993,78,78,0,0,1-2.273,19.925q-2.331,9.026-7.156,12.932A13.131,13.131,0,0,1,37.3,152.546Z" transform="translate(0.425 -1.842) scale(0.97 1)"/></g></g></g></svg>