<svg width="22" height="22" viewBox="0 0 22 22" fill="none" xmlns="http://www.w3.org/2000/svg">
<path d="M10.2139 0H11.7853V3.92857H10.2139V0Z" fill="white"/>
<path d="M15.4678 5.41956L18.2225 2.66406L19.3335 3.77585L16.5788 6.53056L15.4678 5.41956Z" fill="white"/>
<path d="M18.0713 10.2148H21.9999V11.7863H18.0713V10.2148Z" fill="white"/>
<path d="M15.4678 16.5797L16.5788 15.4688L19.3335 18.2235L18.2225 19.3352L15.4678 16.5797Z" fill="white"/>
<path d="M10.2139 18.0703H11.7853V21.9989H10.2139V18.0703Z" fill="white"/>
<path d="M2.66602 18.2235L5.42073 15.4688L6.53173 16.5805L3.77702 19.3352L2.66602 18.2235Z" fill="white"/>
<path d="M0 10.2148H3.92857V11.7863H0V10.2148Z" fill="white"/>
<path d="M2.66602 3.77585L3.77702 2.66406L6.53173 5.41956L5.42073 6.53056L2.66602 3.77585Z" fill="white"/>
<path d="M11.0004 7.85658C11.622 7.85658 12.2297 8.04091 12.7465 8.38625C13.2633 8.73159 13.6662 9.22244 13.904 9.79672C14.1419 10.371 14.2042 11.0029 14.0829 11.6126C13.9616 12.2222 13.6623 12.7822 13.2228 13.2218C12.7832 13.6613 12.2232 13.9606 11.6136 14.0819C11.0039 14.2032 10.372 14.1409 9.7977 13.9031C9.22342 13.6652 8.73257 13.2624 8.38723 12.7455C8.04189 12.2287 7.85756 11.621 7.85756 10.9994C7.8586 10.1662 8.19006 9.36743 8.77923 8.77825C9.36841 8.18908 10.1672 7.85762 11.0004 7.85658ZM11.0004 6.28516C10.068 6.28516 9.15656 6.56164 8.3813 7.07966C7.60604 7.59767 7.0018 8.33394 6.64499 9.19536C6.28818 10.0568 6.19482 11.0047 6.37672 11.9192C6.55862 12.8336 7.00761 13.6736 7.66692 14.3329C8.32622 14.9923 9.16623 15.4412 10.0807 15.6231C10.9952 15.805 11.9431 15.7117 12.8045 15.3549C13.6659 14.9981 14.4022 14.3938 14.9202 13.6186C15.4382 12.8433 15.7147 11.9318 15.7147 10.9994C15.7147 9.74914 15.218 8.55004 14.3339 7.66594C13.4498 6.78184 12.2507 6.28516 11.0004 6.28516Z" fill="white"/>
</svg>
