<svg xmlns="http://www.w3.org/2000/svg" width="97" height="97" viewBox="0 0 97 97"><defs><style>.a{fill:#2dca8c;}.b,.c,.d{fill:#fff;}.b{opacity:0;}.d{opacity:0.3;}</style></defs><g transform="translate(-0.082 0.171)"><circle class="a" cx="48.5" cy="48.5" r="48.5" transform="translate(0.082 -0.171)"/><g transform="translate(24.273 24.273)"><rect class="b" width="50" height="50" transform="translate(-0.191 -0.444)"/><path class="c" d="M16.7,14.466v6.408a2.087,2.087,0,1,1-4.175,0V14.465A14.617,14.617,0,0,1,0,0H4.175A10.437,10.437,0,0,0,14.612,10.437,10.437,10.437,0,0,0,25.049,0h4.175A14.617,14.617,0,0,1,16.7,14.466Z" transform="translate(10.438 22.62)"/><path class="d" d="M0,12.743V6.675a6.431,6.431,0,0,1,1.955-4.72A6.431,6.431,0,0,1,6.675,0a6.431,6.431,0,0,1,4.72,1.955,6.431,6.431,0,0,1,1.955,4.72V18.811a6.431,6.431,0,0,1-1.955,4.72,6.431,6.431,0,0,1-4.72,1.955,6.431,6.431,0,0,1-4.72-1.955A6.431,6.431,0,0,1,0,18.811Z" transform="translate(18.204 3.641)"/></g></g></svg>