<svg xmlns="http://www.w3.org/2000/svg" width="89" height="88" viewBox="0 0 89 88"><defs><style>.a{fill:#377dff;}.b{fill:#fff;}</style></defs><g transform="translate(0.271 -0.172)"><ellipse class="a" cx="44.5" cy="44" rx="44.5" ry="44" transform="translate(-0.271 0.172)"/><path class="b" d="M27.3,12.424H6.215L15.44,3.2a1.82,1.82,0,0,0,0-2.636h0a1.82,1.82,0,0,0-2.636,0L.566,12.8a2.287,2.287,0,0,0,0,3.013L12.8,28.048a1.82,1.82,0,0,0,2.636,0h0a1.82,1.82,0,0,0,0-2.636L6.215,16.186H27.3a1.779,1.779,0,0,0,1.877-1.877h0A1.779,1.779,0,0,0,27.3,12.424Z" transform="translate(29.814 30.135)"/></g></svg>