<svg xmlns="http://www.w3.org/2000/svg" width="93.569" height="127.412" viewBox="0 0 93.569 127.412"><defs><style>.a{fill:#fff;opacity:0.05;}</style></defs><path class="a" d="M60.442,127.412q-13.657,0-19.906-6.568t-6.247-14.157a9.245,9.245,0,0,1,1.089-4.67,8,8,0,0,1,2.979-2.992,9.133,9.133,0,0,1,4.649-1.1,9.137,9.137,0,0,1,4.649,1.1,8.011,8.011,0,0,1,2.979,2.992,9.245,9.245,0,0,1,1.089,4.67,8.842,8.842,0,0,1-1.6,5.474,7.4,7.4,0,0,1-3.778,2.772,10.3,10.3,0,0,0,5.957,3.722,29.37,29.37,0,0,0,8.137,1.168,17.51,17.51,0,0,0,17-12.114A39.5,39.5,0,0,0,79.62,94.136a37.065,37.065,0,0,0-2.4-14.084,17.393,17.393,0,0,0-6.9-8.757,18.37,18.37,0,0,0-9.88-2.845q-3.488,0-8.718,2.919l-6.394,3.211V71.369L74.1,32.838H34.289v39.99A14.253,14.253,0,0,0,36.468,81a7.522,7.522,0,0,0,6.684,3.211,11.167,11.167,0,0,0,6.683-2.335,23.7,23.7,0,0,0,5.522-5.691,2.146,2.146,0,0,1,.726-.949,1.441,1.441,0,0,1,.944-.364,3.388,3.388,0,0,1,1.89.8,3.988,3.988,0,0,1,1.017,2.7,18.8,18.8,0,0,1-.363,2.044,19.318,19.318,0,0,1-6.829,8.464A16.865,16.865,0,0,1,43.152,91.8q-12.931,0-17.871-5.108t-4.94-13.865V32.838H0V25.394H20.341V8.465L15.692,3.794V0H29.2l5.085,2.627V25.394l52.6-.145,5.23,5.253L59.861,62.9a21.488,21.488,0,0,1,6.1-1.459q5.231,0,11.769,3.356A24.34,24.34,0,0,1,87.9,73.849,32.477,32.477,0,0,1,92.478,84.8a46.614,46.614,0,0,1,1.091,9.341A39.028,39.028,0,0,1,89.646,111.5a25.454,25.454,0,0,1-11.914,11.968A38.557,38.557,0,0,1,60.442,127.412Z"/></svg>