<?xml version="1.0" encoding="utf-8"?>
<!-- Generator: Adobe Illustrator 24.3.0, SVG Export Plug-In . SVG Version: 6.00 Build 0)  -->
<svg version="1.1" id="Layer_1" xmlns="http://www.w3.org/2000/svg" xmlns:xlink="http://www.w3.org/1999/xlink" x="0px" y="0px"
	 viewBox="0 0 788 367" style="enable-background:new 0 0 788 367;" xml:space="preserve">
<style type="text/css">
	.st0{fill:#F79643;}
	.st1{fill:#F4812E;}
	.st2{fill:#FAAF46;}
	.st3{fill:#1D8E45;}
	.st4{fill:#0E7C3E;}
	.st5{fill:#57B847;}
	.st6{fill:#DFE0E1;}
	.st7{fill:#D4D6D7;}
	.st8{fill:#FFFFFF;}
	.st9{fill:none;}
	.st10{enable-background:new    ;}
	.st11{fill:none;stroke:#FFFFFF;stroke-width:0.25;stroke-miterlimit:10;}
</style>
<g id="Group_37417" transform="translate(0 0)">
	<g id="Group_37407" transform="translate(0 0)">
		<path id="Path_4107" class="st0" d="M145.6,191.2c-0.7,0-11.7-1.5-12.5-1.9c0,0-0.1,0-0.1-0.1c0.5-0.1,0.9-0.1,1.4-0.2
			c3.2,0.1,6.4,0.6,9.5,1.5C144.8,190.8,145.4,191.1,145.6,191.2z"/>
		<path id="Path_4108" class="st0" d="M176,139.6l-19.9,20l-3.1,3.2l-2.4,2.4l-6,6l0,0l-0.3,0.3l-5.5,5.5l-1.8,1.8l-1.7,1.6
			l-3.6,3.6l-2.1,2.1c-0.8,0.2-1.5,0.3-2.2,0.5c-7.7,1.8-3.1-2.2-9.5-1.4c-3.6,0.5-4.1,6.7-4.1,6.7c-0.4-0.5-0.8-1-1.3-1.5l5-6.7
			l5.8-7.7l3.4-4.6l8.8-11.8l11.9-16H83.7v41.5c-6.7,1.3-13.6,1.4-20.4,0.4c-0.6-0.1-1.1-0.2-1.7-0.4v-42H29v-11.8h32.6v-27.1
			L54.1,97v-6h21.6l8,4.3v36.4l84.1-0.2L176,139.6L176,139.6z"/>
		<path id="Path_4109" class="st1" d="M176,139.6l-19.9,20l-3.1,3.2l-2.4,2.4l-6,6l0,0l-0.3,0.3c-1.3,0.1-2.6,0.1-3.9,0.1
			c-4.5,0.1-9.2,0.1-13.7-0.1l8.8-11.8l11.9-16H83.7v23.6c-7.4-1.2-14.7-2.6-22.1-4.2v-19.8H29v-11.8h30.2c5,1.2,9.9,2.2,14.6,3
			c4.8,0.8,9.7,1.5,14.1,2.1l15.8,2.2c24,2.8,48.2,3,72.3,0.6L176,139.6z"/>
		<path id="Path_4110" class="st2" d="M167.8,131.3l-84.1,0.2V98.1c-2.5-1.2-5.1-2.3-7.7-3.1c-2.6-0.8-2.2,3.1-4.6,2.5
			c-5.6-1.5-8.2-4.3-13.3-5.6c-1.2-0.3-2.4-0.6-3.6-0.9h-0.4v6l7.5,7.5v27.1H29v11.8h32.6v12.3c2.8-0.2,5.7-0.3,8.5-0.1
			c2.2,0.2-5.4-2.8-5.4-2.8c0.3-0.3,12.1,2.2,18.2,3.1l0.7,0.7v-12.7h63.7l-11.9,16c3.1,0.5,6.1,1.3,8.9,2.5
			c-4,0.2-6.1,0.3-10.1,0.3c5.5,0.4,10.9,1.7,16.3,2.5l2.4-2.4l-3.7-1c-2-2.3,1.6-2.5,6.9-2.1l19.9-20l-0.1-0.1L167.8,131.3z"/>
		<path id="Path_4111" class="st3" d="M175.4,221.3c0-0.1-0.1-0.3-0.1-0.4c-0.9,0-1.9,0.1-2.8,0.2c-2.9,0.3-1.8,0.7,0.2,1.1
			c0.9,0.2,2,0.3,3,0.4C175.7,222.1,175.6,221.7,175.4,221.3z M177.7,231.6c-0.2-1-0.3-2.1-0.5-3.1c-0.1-0.7-0.3-1.4-0.4-2
			c-0.1-0.5-0.2-1.1-0.4-1.6c-1.6,0.3-3.3,0.5-4.9,0.5c-2.2,0.1-4.6,0-6.4-0.1c-0.9-0.1-1.6-0.1-2.1-0.2h-0.1c-0.2,0-0.4,0-0.6-0.1
			c0,0-0.2,0.2-0.6,0.4c-1.4,1-2.9,1.9-4.4,2.6c-0.6,0.1-1.2,0.3-1.8,0.5c0.5,2.6,0.9,5.2,1,7.8c-0.4,0.1-0.8,0.2-1.2,0.3
			c0.4-0.1,0.8-0.2,1.2-0.3c0,0.4,0.1,0.8,0.1,1.1c0,0.1,0,0.1,0,0.1c0.1,1.4,0.1,2.8,0,4.3c0.1,6.4-0.8,12.7-2.6,18.8
			c-0.2,0.9-0.6,1.9-0.9,2.8c-3.8,11.7-14.8,19.6-27.1,19.3c-4.4,0.1-8.8-0.5-13.1-1.8c-3.8-0.9-7.1-3-9.5-6c2.4-0.8,4.6-2.4,6-4.5
			c0,0,0-0.1,0.1-0.1c1.7-2.5,2.6-5.6,2.4-8.7c0.1-2.6-0.5-5.2-1.8-7.5c-1.2-2-2.8-3.6-4.8-4.8c-2.3-1.2-4.9-1.8-7.5-1.8
			c-2.6-0.1-5.2,0.5-7.5,1.8c-2.1,1.1-3.7,2.7-4.8,4.8c-1.2,2.3-1.8,4.9-1.8,7.5c0,3.7,0.7,7.4,2.1,10.8c0.3,0.7,0.6,1.4,0.9,2
			c2.2-0.2,4.4-0.3,6.5-0.5c3.1-0.2,8.3-0.1,8.3-0.1c-4.7,0.8-9.4,1.3-14.2,1.6v0l14.6-1l-14.1,1.8c0.4,0.8,1,1.6,1.5,2.5
			c3.6,0,7.1,0,9.9,0.1l-0.1,0.4c-2.4,1.3-5.1,2-7.8,2c0.1,0.1,0.1,0.2,0.2,0.2c0,0,0,0,0,0.1c0.7,0.8,1.4,1.6,2.2,2.4
			c1.5,1.6,3.2,3,5,4.1c4.2,2.7,9,4.5,13.9,5.3c3.2,0.6,6.5,1,9.8,1.1c-0.4,0.2-0.7,0.3-1,0.4c0.4-0.1,0.7-0.3,1.1-0.4
			c1,0,2,0.1,3,0.1c9.5,0,19-2.2,27.6-6.3c8.3-4,15.1-10.7,19.1-19.1c0.1-0.2,0.2-0.5,0.3-0.8c2.5-5.3,4.2-10.8,5.1-16.6
			c0.5-3.5,0.8-7,0.8-10.5C178.6,238.2,178.3,234.9,177.7,231.6L177.7,231.6z M170.4,229.5c-1.6,0.5-2.4,0.7-4,1.2
			C167.7,230,169,229.6,170.4,229.5L170.4,229.5z"/>
		<path id="Path_4112" class="st4" d="M177.7,252c-0.9,5.7-2.6,11.3-5.1,16.6c-0.1,0.3-0.2,0.5-0.3,0.8c-1,2.1-2.2,4-3.5,5.9
			c-5.4,2.5-10.9,4.9-16.4,7.2c-1,0.4-1.9,0.8-2.9,1.2c-1.7,0.7-3.5,1.4-5.2,2.1c-6.1,2.6-17.1,7-21.7,8.8c-0.3,0.2-0.7,0.3-1.1,0.4
			c0.3-0.1,0.6-0.3,1-0.4c4.1-1.8,13.7-6,21.1-9.4h0c1.8-0.8,3.4-1.6,4.8-2.3c0,0,5-3.9,5-4c-1.6,0.7-2.4,1-4,1.6l2.1-1.1
			c-4.8-1.1-20.9,6.8-31.5,9.4c-3.1,0.7-6.2,1.2-9.4,1.5c3.4-2.3,15.1-5.4,15.1-5.4c-3.5-1.6-16.3,1.8-26.9,3.4
			c-1.8-1.2-3.5-2.5-5-4.1c-0.8-0.8-1.5-1.6-2.2-2.5c0,0,0,0,0-0.1c-0.1-0.1-0.1-0.2-0.2-0.2c-0.7-0.9-1.3-1.7-1.9-2.6
			s-1.1-1.6-1.5-2.5c-0.2-0.3-0.3-0.6-0.5-0.8v0c-0.2-0.3-0.4-0.7-0.6-1.1c-0.3-0.7-0.6-1.3-0.9-2c7.9-0.4,15.8-1.1,23.5-2.2
			c0,0,0,0.1-0.1,0.1c-1.5,2.1-3.6,3.7-6,4.5c2.4,3,5.8,5.1,9.5,6c4.2,1.2,8.7,1.8,13.1,1.8c12.3,0.3,23.3-7.6,27.1-19.3
			c0.3-0.9,0.6-1.9,0.9-2.8c4.9-1.5,9.8-3.1,14.7-4.9C171.6,254.5,174.7,253.3,177.7,252z"/>
		<path id="Path_4113" class="st4" d="M149.5,280.5C148.1,281.2,148.5,281,149.5,280.5z"/>
		<path id="Path_4114" class="st5" d="M165.7,275.7l-4.1,1.5L165.7,275.7z"/>
		<path id="Path_4115" class="st5" d="M178.6,241.5c0,3.5-0.3,7-0.8,10.5c-0.9,5.7-2.6,11.3-5.1,16.6c-4.4,2.1-8.8,4.2-13,6.5
			c-1.6,2.5-3.5,4.7-5.8,6.5c-0.5,0.3-0.9,0.6-1.5,0.9c-1,0.4-1.9,0.8-2.9,1.2c-1.9,0.7-3.8,1.2-5.8,1.6h0c-2.4,0.7-4.9,1-7.5,0.8
			c0-0.1,6.5-3.7,6.5-3.8c-6.5,0.1-15.8,5.6-24.1,9.5c-2,0.6-4,1.2-5.9,1.8c-4.9-0.8-9.7-2.6-13.9-5.3c-1.8-1.2-3.5-2.5-5-4.1
			c-0.8-0.8-1.5-1.6-2.2-2.5c0,0,0,0,0-0.1c-0.1-0.1-0.1-0.2-0.2-0.2c-0.7-0.9-1.3-1.7-1.9-2.6s-1.1-1.6-1.5-2.5
			c-0.2-0.3-0.3-0.6-0.5-0.8v0c-0.2-0.3-0.4-0.7-0.6-1.1c-0.3-0.7-0.6-1.3-0.9-2c-1.4-3.4-2.1-7.1-2.1-10.8
			c-0.1-2.6,0.6-5.2,1.8-7.5c1-2,2.7-3.7,4.8-4.8c2.3-1.2,4.9-1.8,7.5-1.8c2.6,0,5.2,0.6,7.5,1.8c1.9,1.2,3.6,2.8,4.8,4.8
			c1.2,2.3,1.8,4.9,1.8,7.5c0.2,3.1-0.7,6.1-2.4,8.7c0,0,0,0.1-0.1,0.1c-1.5,2.1-3.6,3.7-6,4.5c2.4,3,5.8,5.1,9.5,6
			c4.2,1.2,8.7,1.8,13.1,1.8c12.3,0.3,23.3-7.6,27.1-19.3c0.3-0.9,0.6-1.9,0.9-2.8c1.8-6.1,2.7-12.4,2.6-18.8c0-1.4,0-2.8,0-4.3
			c0,0,0-0.1,0-0.1c0-0.4,0-0.8-0.1-1.1v0c0.8-0.2,1.6-0.5,2.2-0.7c0.4-0.1,0.9-0.2,1.5-0.4c0.1,0,0.3,0,0.4-0.1
			c5.4-1.6,10.7-3.6,15.9-6c0.3-0.1,0.6-0.3,0.9-0.5c0.2,1.1,0.3,2.1,0.5,3.1C178.3,234.9,178.5,238.2,178.6,241.5z"/>
		<path id="Path_4116" class="st5" d="M118.6,291.8c-1.1,0.6-2.3,1.1-3.4,1.6c1.5-0.5,2.9-1.1,4.4-1.8
			C119.2,291.6,118.9,291.7,118.6,291.8z"/>
		<path id="Path_4117" class="st5" d="M89.8,253C83.5,253.7,90.8,253.5,89.8,253z"/>
		<path id="Path_4118" class="st5" d="M89.8,253C88.9,253.1,90,253.1,89.8,253z"/>
		<path id="Path_4119" class="st6" d="M122.9,248.5C123,248.5,123,248.5,122.9,248.5z"/>
		<path id="Path_4120" class="st6" d="M122.9,248.6L122.9,248.6z"/>
		<path id="Path_4121" class="st6" d="M124.9,216.2c-0.2,1-0.2,2.2-0.5,3.2c-0.7,1.6-1.4,3.1-2.4,4.6c-0.5,0.9-1.2,1.7-1.8,2.5
			c-0.8,1-1.6,2-2.5,2.9c-1.3,1.3-2.8,2.5-4.3,3.6c-0.9,0.6-1.9,1.2-2.9,1.7c-3.8,2-8.1,3.1-12.4,3.1c-5,0.1-10-0.4-15-1.4
			c-6.3-0.8-11.9-4.2-15.7-9.2c-3.4-4.7-5.4-10.4-5.6-16.2c-0.1-1.1-0.1-2.3-0.1-3.5v-32.7c2.3,0.8,3.6,0.7,2.5-1.2
			c0,0-1.1-0.8-2.5-1.8v-2.3c3.8,2.3,7.8,4.2,12,5.7c-2.5-0.4-3.8-0.7-6.4-1.2c3.8,3.9,10.5,5.1,16.5,5.1v28.4
			c-0.2,4.6,1,9.2,3.5,13c2.4,3.5,6.5,5.5,10.8,5c3.9,0,7.7-1.3,10.8-3.8c3.5-2.4,6.5-5.5,8.8-9c0.3-0.6,0.7-1.1,1.3-1.5h0
			c0.4-0.3,0.9-0.4,1.5-0.5c0.4,0,0.8,0.1,1.1,0.2c0.7,0.2,1.4,0.5,1.9,1C124.4,213.1,125,214.6,124.9,216.2z"/>
		<path id="Path_4122" class="st6" d="M177.7,231.6c-1.8,0.4-1.1-1.3-4.4,0.3c-2.5,1.3-1.9,5.5-1.9,5.5c-0.2-0.2-6.6-3.5-6.6-3.5
			s-2.4,0.6-4.4,1.1c-0.1,0.1-0.2,0.1-0.4,0.1c-0.6,0.2-1.1,0.3-1.5,0.4c-0.6,0.2-1.4,0.4-2.2,0.7c-0.1-2.6-0.5-5.3-1-7.8
			c-0.1-0.5-0.2-0.9-0.3-1.4c-0.5-2.4-1.2-4.7-2.1-6.9c-0.1-0.3-0.2-0.6-0.3-0.8c-1.7-4.8-4.7-9.1-8.6-12.3
			c-0.8-0.6-1.6-1.3-2.4-1.8c-4.7-3-10.2-4.5-15.8-4.5c-5,0.4-9.8,2-14.1,4.8l-10.3,5v-5l11-14.7l5-6.7l5.8-7.7
			c0.9-0.1,1.7-0.2,2.6-0.1c4.2,0.1,8.6,0.6,12.9,1l-1.8,1.8l-1.7,1.7l-3.6,3.6l-2.1,2.1l-5,5c2.7-1.1,5.5-1.8,8.4-2.1
			c0.5-0.1,0.9-0.1,1.4-0.2c3.2,0.1,6.4,0.6,9.5,1.5c3.3,0.9,6.4,2.2,9.3,3.8c4.2,2,7.9,4.7,11.2,8c1.9,2,3.6,4.2,5.1,6.5
			c1.2,1.8,2.2,3.6,3.2,5.5l0.2,0.4c0.1,0.2,0.2,0.4,0.3,0.7c0.3,0.6,0.6,1.3,0.8,1.9c0.1,0.2,0.2,0.4,0.2,0.6
			c0.4,1,0.8,1.9,1.1,2.9c0.1,0.1,0.1,0.3,0.1,0.4c0.1,0.4,0.3,0.8,0.4,1.3c0.2,0.7,0.4,1.5,0.6,2.2c0.1,0.6,0.3,1.1,0.4,1.7
			c0.1,0.7,0.3,1.4,0.4,2C177.4,229.5,177.6,230.6,177.7,231.6z"/>
		<path id="Path_4123" class="st6" d="M156.4,237.4c0,0.1,0,0.1,0,0.1C156.6,237.4,156.5,237.4,156.4,237.4z"/>
		<path id="Path_4124" class="st6" d="M83.7,174.6v1.3c-2.2-1.1-5.5-3.2-6-3.6C78.2,172.5,81.4,173.7,83.7,174.6z"/>
		<path id="Path_4125" class="st6" d="M134,176.1C134,176.1,128.3,174.7,134,176.1z"/>
		<path id="Path_4126" class="st6" d="M134,176.1"/>
		<path id="Path_4127" class="st6" d="M144.6,171.2L144.6,171.2c-0.2,0-0.3-0.1-0.4-0.1C144.3,171.1,144.5,171.2,144.6,171.2z"/>
		<path id="Path_4128" class="st7" d="M175.4,221.3c-0.9,0.3-1.8,0.6-2.7,0.8c-0.6,0.2-1.1,0.3-1.7,0.5c-2.7,0.8-5.5,1.6-8.3,2.4
			l-1.2,0.3c-2.2,0.6-4.4,1.1-6.5,1.7c-0.5-2.4-1.2-4.7-2.1-6.9c-0.1-0.3-0.2-0.6-0.3-0.8c-1.7-4.8-4.7-9.1-8.6-12.3
			c10.2-2.2,11.4-2.4,11.4-2.4c3-0.7,5.9-1.4,8.8-2.2c1.9,2,3.6,4.2,5.1,6.5c1.2,1.8,2.2,3.6,3.2,5.5l0.2,0.4
			c0.1,0.2,0.2,0.4,0.3,0.7c0.3,0.6,0.6,1.3,0.8,1.9c0.1,0.2,0.2,0.4,0.2,0.6c0.4,1,0.8,1.9,1.1,2.9
			C175.4,221,175.4,221.2,175.4,221.3z"/>
		<path id="Path_4129" class="st7" d="M124.9,216.2c-0.2,1-0.2,2.2-0.5,3.2c-0.7,1.6-1.4,3.1-2.4,4.6c-0.5,0.9-1.2,1.7-1.8,2.5
			c-0.8,1-1.6,2-2.5,2.9c-1.3,1.3-2.8,2.5-4.3,3.6c-0.9,0.6-1.9,1.2-2.9,1.7c-8.4,0.9-16.9,1.6-25.4,1.7c-0.7,0-1.3,0-2,0
			c-5.1-0.9-9.9-3.3-13.6-6.8c-0.7-0.8-1.4-1.6-2-2.4c-3.4-4.7-5.4-10.4-5.6-16.2c0.7,0.1,1.3,0.1,2.2,0.2c1.1,0.1,2.1,0.2,3.2,0.3
			l6.7,0.5c3.4,0.2,6.8,0.4,10.2,0.5c0.5,2.8,1.6,5.5,3.2,7.9c2.4,3.5,6.5,5.5,10.8,5c3.9,0,7.7-1.3,10.8-3.8c3.5-2.4,6.5-5.5,8.8-9
			c0.3-0.6,0.7-1.1,1.3-1.5h0c0.9-0.1,1.7-0.2,2.6-0.3c0.7,0.2,1.4,0.5,1.9,1C124.4,213.1,125,214.6,124.9,216.2z"/>
		<path id="Path_4130" class="st8" d="M174.2,217.9c-3,0.5-7.4,1.1-7.9,1.1c-0.4,0-0.7-0.8,1-1.2c2.2-0.4,4.4-0.5,6.6-0.4
			C174.1,217.6,174.2,217.7,174.2,217.9z"/>
		<path id="Path_4131" class="st8" d="M160.5,217.5c0,0,4.9,3.7,5.5,4.1c-4.3-0.9-8.6-1.5-13-1.7c-0.1-0.3-0.2-0.6-0.3-0.8
			c-1.7-4.8-4.7-9.1-8.6-12.3c-0.8-0.6-1.6-1.3-2.4-1.8c-4.7-3-10.2-4.5-15.8-4.5c-5,0.4-9.8,2-14.1,4.8l-10.3,5v-5l11-14.7l5-6.7
			c5.2,0.2,10.2,0.3,14.2,0.2l-2.1,2.1l-5,5c2.7-1.1,5.5-1.8,8.4-2.1c0.5-0.1,0.9-0.1,1.4-0.2c3.2,0.1,6.4,0.6,9.5,1.5
			c3.3,0.9,6.4,2.2,9.3,3.8c4.2,2,7.9,4.7,11.2,8c1.9,2,3.6,4.2,5.1,6.5c1.2,1.8,2.2,3.6,3.2,5.5
			C169.3,215.2,160.5,217.5,160.5,217.5z"/>
		<path id="Path_4132" class="st8" d="M123.3,211.9c-0.5-0.5-1.2-0.9-1.9-1c-0.4-0.1-0.7-0.2-1.1-0.2c-0.5,0.1-1,0.2-1.4,0.5h0
			c-0.5,0.4-1,0.9-1.3,1.5c-2.3,3.6-5.3,6.6-8.8,9c-3.1,2.4-6.9,3.7-10.8,3.8c-4.2,0.5-8.4-1.5-10.8-5c-1.6-2.4-2.7-5.1-3.2-7.9
			c-0.3-1.7-0.4-3.4-0.3-5.1v-26.3c-1.7-1-3.5-1.8-5.5-2.4c-3.8-0.3-7.6,0.2-11.2,1.5c-1.6-1.3-3.5-2.3-5.5-2.9v30
			c0,1.2,0,2.4,0.1,3.5c0.3,5.8,2.2,11.5,5.6,16.2c4.6,0.6,9.2,1,13.8,1.3c2,0.1,13,2.4,13,2.4c0.6-0.5,1.2-0.9,1.8-1.2
			c1.5-0.9,3.1-1.8,4.8-2.5c3.8-1.5,8.4-2.5,11.7-0.1c-0.7,0.9-1.4,1.8-1.9,2.8c-0.6,1.3-0.3,2.4,2.9,1.5c1.5-0.5,2.9-1.1,4.3-1.9
			c0.9-0.9,1.7-1.9,2.5-2.9c-1,0.1-2,0.2-3.2,0.3c1.5-1.2,3.2-2.2,5-2.8c0.9-1.5,1.7-3,2.4-4.6c0.3-1,0.3-2.2,0.5-3.2
			C125,214.6,124.4,213,123.3,211.9z M81.8,221.9c2.5,0.1,3.8,0.2,6.3,0.2C86,222.5,83.9,222.4,81.8,221.9z"/>
		<path id="Path_4133" class="st8" d="M172.9,214.8c-0.6,0.5-1.2,1-0.3,0.8c0.2,0,0.4-0.1,0.6-0.1C173.1,215.3,173,215,172.9,214.8z
			"/>
		<path id="Path_4134" class="st8" d="M101.3,233.5C109.4,234.7,101.3,233.5,101.3,233.5z"/>
		<path id="Path_4135" class="st8" d="M101.3,233.5"/>
		<path id="Path_4136" class="st9" d="M178.6,241.5c0,3.5-0.3,7-0.8,10.5c-0.9,5.7-2.6,11.3-5.1,16.6c-0.1,0.3-0.2,0.5-0.3,0.8
			c-4,8.3-10.7,15.1-19.1,19.1c-8.6,4.1-18,6.2-27.6,6.3c-1,0-2,0-3-0.1h-0.1c-3.3-0.1-6.6-0.4-9.8-1.1c-4.9-0.8-9.7-2.6-13.9-5.3
			c-1.8-1.2-3.5-2.5-5-4.1c-0.8-0.8-1.5-1.6-2.2-2.4c0,0,0,0,0-0.1c-0.1-0.1-0.1-0.2-0.2-0.2c-0.7-0.9-1.4-1.7-1.9-2.6
			c-0.5-0.8-1.1-1.6-1.5-2.5c-0.2-0.3-0.3-0.6-0.5-0.8v0c-0.2-0.3-0.4-0.7-0.6-1.1c-0.3-0.7-0.6-1.3-0.9-2
			c-1.4-3.4-2.1-7.1-2.1-10.8c0-2.6,0.6-5.2,1.8-7.5c1.1-2.1,2.7-3.7,4.8-4.8c2.3-1.2,4.9-1.8,7.5-1.8c2.6,0,5.2,0.6,7.5,1.8
			c1.9,1.2,3.6,2.8,4.8,4.8c1.2,2.3,1.9,4.9,1.8,7.5c0.2,3.1-0.7,6.1-2.4,8.7c0,0,0,0.1-0.1,0.1c-1.5,2.1-3.6,3.7-6,4.5
			c2.4,3,5.8,5.1,9.5,6c4.2,1.2,8.7,1.8,13.1,1.8c12.3,0.3,23.3-7.6,27.1-19.3c0.3-0.9,0.7-1.9,0.9-2.8c1.8-6.1,2.7-12.4,2.6-18.8
			c0-1.4,0-2.8,0-4.3c0,0,0-0.1,0-0.1c0-0.4,0-0.8-0.1-1.1v0c-0.2-2.6-0.5-5.3-1-7.8c-0.1-0.5-0.2-0.9-0.3-1.4
			c-0.5-2.4-1.2-4.7-2.1-7c-0.1-0.3-0.2-0.6-0.3-0.8c-1.7-4.8-4.7-9.1-8.6-12.3c-0.8-0.6-1.6-1.2-2.4-1.8c-4.7-3-10.2-4.5-15.8-4.5
			c-5,0.4-9.9,2-14.1,4.8l-10.3,5v-5l11-14.7l5-6.7l5.8-7.7l3.4-4.6l8.8-11.8l11.9-16H83.7v63.5c-0.1,1.7,0,3.4,0.3,5.1
			c0.5,2.8,1.6,5.5,3.2,7.9c2.4,3.6,6.5,5.5,10.8,5c3.9,0,7.7-1.3,10.8-3.8c3.5-2.4,6.5-5.5,8.8-9c0.3-0.6,0.7-1.1,1.3-1.5h0
			c0.4-0.3,0.9-0.4,1.4-0.5c0.4,0,0.8,0.1,1.1,0.2c0.7,0.2,1.4,0.5,1.9,1c1.1,1.2,1.6,2.7,1.5,4.3c-0.2,1-0.2,2.3-0.5,3.2
			c-0.6,1.6-1.4,3.1-2.4,4.6c-0.6,0.9-1.2,1.7-1.8,2.5c-0.8,1-1.6,2-2.5,2.9c-1.4,1.3-2.8,2.5-4.3,3.6c-4.6,3-9.9,4.6-15.3,4.8
			c-5,0.1-10-0.4-15-1.4c-5.1-0.9-9.9-3.3-13.7-6.8c-0.7-0.8-1.4-1.6-2-2.4c-3.4-4.7-5.4-10.4-5.6-16.2c-0.1-1.2-0.1-2.3-0.1-3.5
			v-64H29v-11.8h32.6v-27.1L54.1,97v-6h21.6l8,4.3v36.4l84.1-0.2l8.2,8.2l0.1,0.1l-19.9,20l-3.1,3.2l-2.4,2.4l-6,6l0,0l-0.3,0.3
			l-5.5,5.5l-1.8,1.8l-1.7,1.6l-3.6,3.6l-2.1,2.1l-5,5c2.7-1.1,5.5-1.8,8.4-2.1c0.5-0.1,0.9-0.1,1.4-0.2c3.2,0.1,6.4,0.6,9.5,1.4
			c3.3,0.9,6.4,2.2,9.3,3.8c4.2,2,7.9,4.7,11.2,8c1.9,2,3.6,4.2,5.2,6.5c1.2,1.8,2.2,3.6,3.2,5.5c0.1,0.1,0.1,0.3,0.2,0.4
			c0.1,0.2,0.2,0.4,0.3,0.6c0.3,0.6,0.6,1.3,0.8,1.9c0.1,0.2,0.2,0.4,0.2,0.5c0.4,1,0.8,1.9,1.1,2.9c0.1,0.1,0.1,0.3,0.1,0.4
			c0.2,0.4,0.3,0.8,0.4,1.3c0.3,0.7,0.5,1.5,0.6,2.2c0.1,0.5,0.3,1.1,0.4,1.6c0.1,0.7,0.3,1.4,0.4,2c0.2,1.1,0.3,2.1,0.5,3.1
			C178.3,234.9,178.5,238.2,178.6,241.5z"/>
	</g>
	<g class="st10">
		<path class="st8" d="M257.9,165h-21.1c-1.6,0-2.3,0.6-2.3,2.3v5.1H230v-6c0-4.3,1.4-5.6,5.6-5.6h48.8c4.3,0,5.6,1.4,5.6,5.6v6
			h-4.4v-5.1c0-1.7-0.7-2.3-2.3-2.3h-21.1v69h-4.5V165z"/>
		<path class="st8" d="M313.9,180.5c14.2,0,21.3,11.2,21.3,23.8c0,1.2-0.2,2.8-0.2,2.8h-41.9c0,15.2,10.2,23.8,22.4,23.8
			c10,0,16.2-6.6,16.2-6.6l2.4,3.7c0,0-7.3,7.2-18.6,7.2c-14.7,0-27-10.7-27-27.3C288.5,190.3,300.5,180.5,313.9,180.5z
			 M330.7,203.1c-0.5-12.8-8.2-18.5-16.8-18.5c-9.6,0-18.5,6.3-20.4,18.5H330.7z"/>
		<path class="st8" d="M345.5,230.5l31.7-39.8c1.9-2.4,4.1-4.8,4.1-4.8v-0.2c0,0-1.9,0.2-5.3,0.2h-23.5c-1.5,0-2.3,0.7-2.3,2.3v4.5
			h-4.3v-4.8c0-4.3,1.8-6.1,6.1-6.1h35.4v3.6l-31.8,39.8c-1.9,2.4-4.2,4.8-4.2,4.8v0.2c0,0,2-0.2,5.4-0.2h26.1
			c1.5,0,2.3-0.7,2.3-2.3v-4.5h4.3v4.8c0,4.3-1.8,6.1-6.1,6.1h-37.9V230.5z"/>
		<path class="st8" d="M423,180.5c15,0,27.1,11.8,27.1,27.1c0,15.6-12.1,27.7-27.1,27.7c-15,0-27.1-12.1-27.1-27.7
			C395.9,192.3,408,180.5,423,180.5z M423,231c12.4,0,22.5-10.1,22.5-23.4c0-13-10-22.8-22.5-22.8c-12.4,0-22.5,9.8-22.5,22.8
			C400.5,220.8,410.6,231,423,231z"/>
		<path class="st8" d="M461.1,223c0,0,5.4,7.9,16.2,7.9c6.7,0,12.9-3.3,12.9-9.8c0-13.2-30.1-10.2-30.1-27.1c0-9,7.5-13.6,17.9-13.6
			c4.5,0,14.7,2,14.7,8.9v4h-4.4v-2.5c0-4.4-6.5-6.1-10.1-6.1c-8.5,0-13.5,3-13.5,9c0,13.4,30.1,10.1,30.1,27.4
			c0,8.4-7.6,14.1-17.6,14.1c-13.2,0-19.2-9-19.2-9L461.1,223z"/>
		<path class="st8" d="M533.3,229.8h6.7V165h-6.7v-4.2h17.9v4.2h-6.7v64.8h6.7v4.2h-17.9V229.8z"/>
		<path class="st8" d="M565.7,188c0-1.6-0.8-2.3-2.3-2.3H559v-4h5.1c4.3,0,6.1,1.8,6.1,5.8v2.9c0,2.4-0.2,4.3-0.2,4.3h0.2
			c1.8-4.9,8.9-14.2,22-14.2c13.6,0,17.3,8.1,17.3,20.4v26.9c0,1.6,0.8,2.3,2.3,2.3h4.5v4H611c-4.3,0-6.1-1.8-6.1-6.1v-25.5
			c0-9.1-1.2-17.7-12.9-17.7c-9.8,0-18.5,6.9-21.1,16.6c-0.6,2.2-0.8,4.6-0.8,7.1V234h-4.4V188z"/>
		<path class="st8" d="M646.7,180.5c13.2,0,17.9,11.3,17.9,11.3h0.2c0,0-0.2-1.9-0.2-4.3v-20.4c0-1.6-0.8-2.3-2.3-2.3h-4.5v-4h5.1
			c4.3,0,6.1,1.8,6.1,6.1v60.9c0,1.6,0.8,2.3,2.3,2.3h4.5v4h-5.1c-4.3,0-6.1-1.8-6.1-6.1c0-2.4,0.2-4,0.2-4h-0.2
			c0,0-4.3,11.3-18.7,11.3c-14,0-22.6-11.2-22.6-27.4C623.3,191.2,633,180.5,646.7,180.5z M664.7,207.8c0-11.6-6-23.1-18.2-23.1
			c-10.2,0-18.6,8.6-18.6,23.2c0,14.1,7.5,23.1,18.2,23.1C655.7,231,664.7,224.2,664.7,207.8z"/>
		<path class="st8" d="M688.3,188c0-1.6-0.8-2.3-2.3-2.3h-4.5v-4h5.1c4.3,0,6.1,1.8,6.1,6.1v40c0,1.6,0.8,2.3,2.3,2.3h4.5v4h-5.1
			c-4.3,0-6.1-1.8-6.1-6.1V188z M687.7,160.8h4.8v7.6h-4.8V160.8z"/>
		<path class="st8" d="M739.4,202.1h3.5v-0.7c0-12.4-4.3-16.8-15.2-16.8c-2.7,0-11.6,0.7-11.6,5.1v3.6h-4.4v-4.8
			c0-6.2,11.8-7.9,16.1-7.9c16,0,19.5,8.7,19.5,19.8v27.5c0,1.6,0.8,2.3,2.3,2.3h4.5v4h-5.1c-4.3,0-6.1-1.7-6.1-6.4
			c0-2.8,0.2-4.7,0.2-4.7h-0.2c0.1,0-4.5,12.3-18.1,12.3c-8.5,0-17.8-4.7-17.8-15.2C706.9,202.3,730,202.1,739.4,202.1z
			 M724.9,231.2c11.4,0,17.9-11.8,17.9-22.2v-2.8h-3.3c-8.9,0-27.9,0-27.9,13.6C711.5,225.3,716,231.2,724.9,231.2z"/>
	</g>
	<g class="st10">
		<path class="st11" d="M257.9,165h-21.1c-1.6,0-2.3,0.6-2.3,2.3v5.1H230v-6c0-4.3,1.4-5.6,5.6-5.6h48.8c4.3,0,5.6,1.4,5.6,5.6v6
			h-4.4v-5.1c0-1.7-0.7-2.3-2.3-2.3h-21.1v69h-4.5V165z"/>
		<path class="st11" d="M313.9,180.5c14.2,0,21.3,11.2,21.3,23.8c0,1.2-0.2,2.8-0.2,2.8h-41.9c0,15.2,10.2,23.8,22.4,23.8
			c10,0,16.2-6.6,16.2-6.6l2.4,3.7c0,0-7.3,7.2-18.6,7.2c-14.7,0-27-10.7-27-27.3C288.5,190.3,300.5,180.5,313.9,180.5z
			 M330.7,203.1c-0.5-12.8-8.2-18.5-16.8-18.5c-9.6,0-18.5,6.3-20.4,18.5H330.7z"/>
		<path class="st11" d="M345.5,230.5l31.7-39.8c1.9-2.4,4.1-4.8,4.1-4.8v-0.2c0,0-1.9,0.2-5.3,0.2h-23.5c-1.5,0-2.3,0.7-2.3,2.3v4.5
			h-4.3v-4.8c0-4.3,1.8-6.1,6.1-6.1h35.4v3.6l-31.8,39.8c-1.9,2.4-4.2,4.8-4.2,4.8v0.2c0,0,2-0.2,5.4-0.2h26.1
			c1.5,0,2.3-0.7,2.3-2.3v-4.5h4.3v4.8c0,4.3-1.8,6.1-6.1,6.1h-37.9V230.5z"/>
		<path class="st11" d="M423,180.5c15,0,27.1,11.8,27.1,27.1c0,15.6-12.1,27.7-27.1,27.7c-15,0-27.1-12.1-27.1-27.7
			C395.9,192.3,408,180.5,423,180.5z M423,231c12.4,0,22.5-10.1,22.5-23.4c0-13-10-22.8-22.5-22.8c-12.4,0-22.5,9.8-22.5,22.8
			C400.5,220.8,410.6,231,423,231z"/>
		<path class="st11" d="M461.1,223c0,0,5.4,7.9,16.2,7.9c6.7,0,12.9-3.3,12.9-9.8c0-13.2-30.1-10.2-30.1-27.1
			c0-9,7.5-13.6,17.9-13.6c4.5,0,14.7,2,14.7,8.9v4h-4.4v-2.5c0-4.4-6.5-6.1-10.1-6.1c-8.5,0-13.5,3-13.5,9
			c0,13.4,30.1,10.1,30.1,27.4c0,8.4-7.6,14.1-17.6,14.1c-13.2,0-19.2-9-19.2-9L461.1,223z"/>
		<path class="st11" d="M533.3,229.8h6.7V165h-6.7v-4.2h17.9v4.2h-6.7v64.8h6.7v4.2h-17.9V229.8z"/>
		<path class="st11" d="M565.7,188c0-1.6-0.8-2.3-2.3-2.3H559v-4h5.1c4.3,0,6.1,1.8,6.1,5.8v2.9c0,2.4-0.2,4.3-0.2,4.3h0.2
			c1.8-4.9,8.9-14.2,22-14.2c13.6,0,17.3,8.1,17.3,20.4v26.9c0,1.6,0.8,2.3,2.3,2.3h4.5v4H611c-4.3,0-6.1-1.8-6.1-6.1v-25.5
			c0-9.1-1.2-17.7-12.9-17.7c-9.8,0-18.5,6.9-21.1,16.6c-0.6,2.2-0.8,4.6-0.8,7.1V234h-4.4V188z"/>
		<path class="st11" d="M646.7,180.5c13.2,0,17.9,11.3,17.9,11.3h0.2c0,0-0.2-1.9-0.2-4.3v-20.4c0-1.6-0.8-2.3-2.3-2.3h-4.5v-4h5.1
			c4.3,0,6.1,1.8,6.1,6.1v60.9c0,1.6,0.8,2.3,2.3,2.3h4.5v4h-5.1c-4.3,0-6.1-1.8-6.1-6.1c0-2.4,0.2-4,0.2-4h-0.2
			c0,0-4.3,11.3-18.7,11.3c-14,0-22.6-11.2-22.6-27.4C623.3,191.2,633,180.5,646.7,180.5z M664.7,207.8c0-11.6-6-23.1-18.2-23.1
			c-10.2,0-18.6,8.6-18.6,23.2c0,14.1,7.5,23.1,18.2,23.1C655.7,231,664.7,224.2,664.7,207.8z"/>
		<path class="st11" d="M688.3,188c0-1.6-0.8-2.3-2.3-2.3h-4.5v-4h5.1c4.3,0,6.1,1.8,6.1,6.1v40c0,1.6,0.8,2.3,2.3,2.3h4.5v4h-5.1
			c-4.3,0-6.1-1.8-6.1-6.1V188z M687.7,160.8h4.8v7.6h-4.8V160.8z"/>
		<path class="st11" d="M739.4,202.1h3.5v-0.7c0-12.4-4.3-16.8-15.2-16.8c-2.7,0-11.6,0.7-11.6,5.1v3.6h-4.4v-4.8
			c0-6.2,11.8-7.9,16.1-7.9c16,0,19.5,8.7,19.5,19.8v27.5c0,1.6,0.8,2.3,2.3,2.3h4.5v4h-5.1c-4.3,0-6.1-1.7-6.1-6.4
			c0-2.8,0.2-4.7,0.2-4.7h-0.2c0.1,0-4.5,12.3-18.1,12.3c-8.5,0-17.8-4.7-17.8-15.2C706.9,202.3,730,202.1,739.4,202.1z
			 M724.9,231.2c11.4,0,17.9-11.8,17.9-22.2v-2.8h-3.3c-8.9,0-27.9,0-27.9,13.6C711.5,225.3,716,231.2,724.9,231.2z"/>
	</g>
</g>
</svg>
