<svg xmlns="http://www.w3.org/2000/svg" width="374.867" height="104.005" viewBox="0 0 374.867 104.005">
  <g id="Group_37426" data-name="Group 37426" transform="translate(0)">
    <g id="Group_37407" data-name="Group 37407" transform="translate(0 0)">
      <path id="Path_4107" data-name="Path 4107" d="M365,281.037c-.352,0-5.985-.775-6.373-.951-.017,0-.035-.018-.052-.035.247-.035.475-.07.722-.088a22.35,22.35,0,0,1,4.823.74C364.574,280.878,364.908,281,365,281.037Z" transform="translate(-305.602 -229.983)" fill="#f79643"/>
      <path id="Path_4108" data-name="Path 4108" d="M356.794,232.414l-10.123,10.174-1.6,1.62-1.209,1.217L340.8,248.5l-.017.017-.16.159-2.82,2.82-.915.932-.848.84-1.83,1.855-1.074,1.066c-.386.093-.772.16-1.142.252-3.945.9-1.6-1.125-4.844-.688-1.83.26-2.073,3.433-2.073,3.433a7.646,7.646,0,0,0-.655-.772L326.953,255l2.946-3.928,1.755-2.359,4.491-6,6.077-8.134H309.754v21.128c-3.408.436-6.825.948-10.4.193-.285-.05-.562-.126-.848-.193V234.336H281.893v-6.019h16.612V214.509l-3.836-3.837v-3.064h10.988l4.1,2.166v18.543l42.835-.126,4.155,4.172Z" transform="translate(-281.89 -207.609)" fill="#f79643"/>
      <path id="Path_4109" data-name="Path 4109" d="M356.794,241.684l-10.123,10.174-1.6,1.62-1.209,1.217-3.064,3.081-.017.017-.16.159c-.654.034-1.326.05-1.972.068-2.309.041-4.667.041-6.993-.034l4.491-6,6.077-8.134H309.754v12c-3.761-.6-7.513-1.335-11.248-2.14V243.607H281.893v-6.019H297.28c2.568.613,5.028,1.108,7.428,1.527,2.46.42,4.927.756,7.194,1.075,7.2,1.007,8.034,1.125,8.034,1.125a173.508,173.508,0,0,0,36.808.319Z" transform="translate(-281.89 -216.88)" fill="#f4812e"/>
      <path id="Path_4110" data-name="Path 4110" d="M352.585,228.193l-42.829.123V211.24a25.86,25.86,0,0,0-3.926-1.584c-1.321-.388-1.109,1.584-2.359,1.25-2.869-.757-4.155-2.2-6.778-2.834-.6-.141-1.2-.282-1.813-.457h-.211v3.063l3.837,3.837v13.8H281.889v6.021h16.618v6.249a29.805,29.805,0,0,1,4.33-.035c1.109.088-2.728-1.426-2.728-1.426.159-.141,6.179,1.109,9.277,1.567l.37.37v-6.479h32.46l-6.073,8.133a19.871,19.871,0,0,1,4.56,1.25c-2.06.106-3.1.141-5.158.176,2.8.229,5.563.845,8.308,1.285l1.215-1.215-1.9-.528c-1.039-1.162.81-1.286,3.5-1.091l10.122-10.175-.052-.053Z" transform="translate(-281.889 -207.611)" fill="#faaf46"/>
      <path id="Path_4111" data-name="Path 4111" d="M368.964,303.649a.884.884,0,0,0-.067-.21c-.479.017-.949.034-1.411.084-1.478.16-.9.369.126.546.47.092,1.041.176,1.545.227A5.334,5.334,0,0,0,368.964,303.649Zm1.167,5.263c-.093-.528-.176-1.058-.269-1.6-.067-.336-.142-.688-.21-1.04-.05-.278-.126-.563-.193-.84a14.751,14.751,0,0,1-2.5.244c-1.142.033-2.342,0-3.257-.05-.437-.042-.823-.059-1.091-.093h-.067a1.618,1.618,0,0,1-.319-.05s-.126.084-.319.21a11.084,11.084,0,0,1-2.266,1.318c-.3.075-.621.142-.915.235a26.677,26.677,0,0,1,.529,4c-.218.05-.411.118-.6.177.193-.059.386-.109.6-.16.017.193.034.386.034.579.017.034.017.05,0,.067.033.723.033,1.444.017,2.166a32.919,32.919,0,0,1-1.335,9.577c-.126.479-.285.948-.462,1.427a14.158,14.158,0,0,1-13.8,9.838,22.714,22.714,0,0,1-6.656-.9,8.933,8.933,0,0,1-4.86-3.064,6.23,6.23,0,0,0,3.081-2.3c.017-.017.017-.042.042-.059a7.11,7.11,0,0,0,1.226-4.415,7.573,7.573,0,0,0-.9-3.836,7.236,7.236,0,0,0-2.426-2.434,8.119,8.119,0,0,0-3.819-.9,7.8,7.8,0,0,0-3.836.9,5.59,5.59,0,0,0-2.434,2.434,8.029,8.029,0,0,0-.9,3.836,14.626,14.626,0,0,0,1.091,5.523,9.586,9.586,0,0,0,.462,1.041c1.108-.084,2.216-.177,3.324-.244,1.6-.109,4.214-.033,4.214-.033a66.387,66.387,0,0,1-7.236.822v.017l7.446-.5-7.2.932c.227.419.495.822.772,1.25,1.846,0,3.626.017,5.019.034l-.05.227c-.478.461-1.989.789-3.979,1.041.034.033.068.084.1.117,0,.025.017.025.017.042.352.419.722.822,1.133,1.242a13.22,13.22,0,0,0,2.569,2.1,19.1,19.1,0,0,0,7.076,2.695,28.417,28.417,0,0,0,4.994.546c-.193.084-.352.16-.487.227a3.318,3.318,0,0,0,.546-.227c.5.017,1.016.033,1.545.033a33.147,33.147,0,0,0,14.052-3.207,20.784,20.784,0,0,0,9.712-9.712,3.091,3.091,0,0,0,.176-.386,31.716,31.716,0,0,0,2.61-8.453,34.53,34.53,0,0,0,.42-5.346A31.923,31.923,0,0,0,370.131,308.912Zm-3.718-1.091c-.806.243-1.217.369-2.023.6A4.814,4.814,0,0,1,366.413,307.821Z" transform="translate(-294.363 -237.243)" fill="#1d8e45"/>
      <path id="Path_4112" data-name="Path 4112" d="M370.619,326.4a31.51,31.51,0,0,1-2.606,8.45,3.891,3.891,0,0,1-.175.388,21.55,21.55,0,0,1-1.778,3.01c-2.746,1.268-5.563,2.483-8.38,3.662-.492.211-.986.4-1.479.616-.88.37-1.76.722-2.64,1.091-3.133,1.3-8.7,3.573-11.038,4.507a4.028,4.028,0,0,1-.546.229c.141-.07.3-.141.493-.229,2.094-.915,6.988-3.046,10.773-4.788h.018c.9-.422,1.725-.81,2.447-1.162,0,0,2.57-2.007,2.57-2.059-.828.334-1.232.493-2.06.792l1.056-.546c-2.429-.563-10.632,3.486-16.055,4.788a32.654,32.654,0,0,1-4.788.774c1.743-1.179,7.675-2.764,7.675-2.764-1.778-.792-8.309.915-13.713,1.726a13.518,13.518,0,0,1-2.57-2.1c-.4-.422-.774-.828-1.127-1.25,0-.018-.017-.018-.017-.035-.035-.035-.071-.088-.106-.124-.352-.44-.687-.862-.986-1.3-.282-.423-.546-.828-.775-1.25-.088-.141-.176-.281-.247-.422v-.018c-.1-.176-.211-.37-.3-.546a8.84,8.84,0,0,1-.457-1.039c4.013-.211,8.027-.58,11.988-1.109-.017.017-.017.035-.035.052a6.219,6.219,0,0,1-3.08,2.307,8.911,8.911,0,0,0,4.858,3.063,22.826,22.826,0,0,0,6.654.9,14.157,14.157,0,0,0,13.8-9.841,14.752,14.752,0,0,0,.457-1.426c2.518-.757,5.017-1.6,7.482-2.5C367.521,327.681,369.087,327.046,370.619,326.4Z" transform="translate(-294.853 -244.342)" fill="#0e7c3e"/>
      <path id="Path_4113" data-name="Path 4113" d="M370.539,347.4c-.676.354-.5.241,0,0Z" transform="translate(-309.165 -250.839)" fill="#0e7c3e"/>
      <path id="Path_4114" data-name="Path 4114" d="M381.792,343.875l-2.078.785Z" transform="translate(-312.14 -249.747)" fill="#57b847"/>
      <path id="Path_4115" data-name="Path 4115" d="M370.553,315.677a33.91,33.91,0,0,1-.423,5.351,31.507,31.507,0,0,1-2.606,8.45c-2.253,1.073-4.471,2.165-6.619,3.327a13.185,13.185,0,0,1-2.975,3.292,4.813,4.813,0,0,1-.739.44c-.492.211-.986.4-1.479.616a24.247,24.247,0,0,1-2.939.81h-.018a11.273,11.273,0,0,1-3.8.423c0-.035,3.327-1.884,3.327-1.919-3.327.035-8.063,2.834-12.287,4.841q-1.531.449-3.01.9a19.031,19.031,0,0,1-7.076-2.693,13.518,13.518,0,0,1-2.57-2.1c-.4-.422-.774-.828-1.127-1.25,0-.018-.017-.018-.017-.035-.035-.035-.071-.088-.106-.124-.352-.44-.687-.862-.986-1.3-.282-.423-.546-.827-.775-1.25-.088-.141-.176-.281-.247-.422v-.018c-.1-.176-.211-.37-.3-.546a8.844,8.844,0,0,1-.457-1.039,14.656,14.656,0,0,1-1.091-5.527,7.988,7.988,0,0,1,.9-3.838,5.586,5.586,0,0,1,2.429-2.429,7.774,7.774,0,0,1,3.838-.9,8.083,8.083,0,0,1,3.82.9,7.3,7.3,0,0,1,2.429,2.429,7.634,7.634,0,0,1,.9,3.838,7.1,7.1,0,0,1-1.232,4.418c-.017.017-.017.035-.035.053a6.219,6.219,0,0,1-3.08,2.306,8.911,8.911,0,0,0,4.858,3.063,22.826,22.826,0,0,0,6.654.9,14.158,14.158,0,0,0,13.8-9.841,14.763,14.763,0,0,0,.457-1.426A32.838,32.838,0,0,0,359.3,315.8c.018-.722.018-1.444-.017-2.165.017-.017.017-.035,0-.07,0-.193-.018-.388-.035-.581v-.017c.422-.124.828-.247,1.144-.335.211-.053.475-.123.757-.211a.4.4,0,0,0,.193-.053,53.815,53.815,0,0,0,8.081-3.081,3.6,3.6,0,0,0,.44-.246c.088.546.176,1.074.264,1.6A31.526,31.526,0,0,1,370.553,315.677Z" transform="translate(-294.364 -238.975)" fill="#57b847"/>
      <path id="Path_4116" data-name="Path 4116" d="M347.172,355.69c-.581.282-1.162.546-1.725.792a18.032,18.032,0,0,0,2.218-.933C347.506,355.6,347.33,355.637,347.172,355.69Z" transform="translate(-301.543 -253.357)" fill="#57b847"/>
      <path id="Path_4117" data-name="Path 4117" d="M326.144,327.123c-3.233.337.477.236,0,0Z" transform="translate(-295.161 -244.567)" fill="#57b847"/>
      <path id="Path_4118" data-name="Path 4118" d="M326.654,327.123c-.49.052.105.051,0,0Z" transform="translate(-295.671 -244.567)" fill="#57b847"/>
      <path id="Path_4119" data-name="Path 4119" d="M351.172,323.833c.017-.014.008-.008,0,0Z" transform="translate(-303.314 -243.547)" fill="#dfe0e1"/>
      <path id="Path_4120" data-name="Path 4120" d="M351.163,323.843l.006-.005Z" transform="translate(-303.311 -243.551)" fill="#dfe0e1"/>
      <path id="Path_4121" data-name="Path 4121" d="M338.16,289.29c-.123.51-.123,1.145-.264,1.655a15.358,15.358,0,0,1-1.2,2.341,10.89,10.89,0,0,1-.933,1.286,12.506,12.506,0,0,1-1.285,1.461,18.6,18.6,0,0,1-2.2,1.813,12.25,12.25,0,0,1-1.462.845,13.579,13.579,0,0,1-6.337,1.584,35.824,35.824,0,0,1-7.623-.721,13.452,13.452,0,0,1-6.953-3.486,13.588,13.588,0,0,1-1.039-1.215A15.283,15.283,0,0,1,306,286.6c-.035-.581-.053-1.162-.053-1.778v-16.67c1.162.388,1.813.334,1.285-.616,0,0-.563-.4-1.285-.933v-1.162a38.668,38.668,0,0,0,6.091,2.923c-1.285-.229-1.937-.352-3.239-.616,1.954,1.989,5.351,2.623,8.4,2.6v14.47a11.171,11.171,0,0,0,1.8,6.637,5.849,5.849,0,0,0,5.492,2.552,8.913,8.913,0,0,0,5.492-1.919,16.563,16.563,0,0,0,4.471-4.594,2.131,2.131,0,0,1,.651-.774h.017a1.748,1.748,0,0,1,.74-.247,1.665,1.665,0,0,1,.563.106,2.169,2.169,0,0,1,.968.528A2.917,2.917,0,0,1,338.16,289.29Z" transform="translate(-289.328 -225.492)" fill="#dfe0e1"/>
      <path id="Path_4122" data-name="Path 4122" d="M374.188,298.7c-.915.211-.546-.687-2.271.176-1.285.651-.951,2.781-.951,2.781-.1-.123-3.345-1.778-3.345-1.778s-1.2.3-2.218.546a.4.4,0,0,1-.193.053c-.282.088-.546.158-.757.211-.316.088-.722.211-1.144.335a25.6,25.6,0,0,0-.528-4c-.035-.247-.088-.475-.141-.7a25.434,25.434,0,0,0-1.056-3.538,3.9,3.9,0,0,0-.141-.423,14.052,14.052,0,0,0-4.4-6.249,12.277,12.277,0,0,0-1.232-.916,15.079,15.079,0,0,0-8.045-2.306c-1.919,0-4.225.774-7.165,2.429l-5.246,2.57v-2.57l5.6-7.482,2.535-3.415,2.94-3.926a6.7,6.7,0,0,1,1.337-.07c2.148.07,4.366.3,6.566.493l-.915.933-.846.845-1.831,1.848-1.073,1.074-2.535,2.552a15.3,15.3,0,0,1,4.26-1.073c.247-.035.475-.07.722-.088a22.348,22.348,0,0,1,4.823.74,21.1,21.1,0,0,1,4.753,1.953,19.773,19.773,0,0,1,5.686,4.084A22.079,22.079,0,0,1,370,287.117a24.852,24.852,0,0,1,1.619,2.817l.106.211c.053.106.106.229.159.335.158.316.3.651.422.968a1.106,1.106,0,0,1,.106.282,15.13,15.13,0,0,1,.546,1.5.97.97,0,0,1,.07.211c.07.211.141.423.193.651a8.828,8.828,0,0,1,.3,1.127c.07.282.14.563.193.845.07.352.141.7.211,1.039C374.012,297.645,374.1,298.172,374.188,298.7Z" transform="translate(-298.423 -227.033)" fill="#dfe0e1"/>
      <path id="Path_4123" data-name="Path 4123" d="M375.875,315.59c.017.035.017.053,0,.07C375.945,315.625,375.927,315.608,375.875,315.59Z" transform="translate(-310.953 -241.001)" fill="#dfe0e1"/>
      <path id="Path_4124" data-name="Path 4124" d="M320.868,268.816v.669c-1.109-.564-2.782-1.655-3.046-1.831C318.086,267.724,319.688,268.341,320.868,268.816Z" transform="translate(-293.001 -226.177)" fill="#dfe0e1"/>
      <path id="Path_4125" data-name="Path 4125" d="M358.75,270.28c-.006.009-2.887-.743,0,0Z" transform="translate(-305.26 -226.888)" fill="#dfe0e1"/>
      <path id="Path_4126" data-name="Path 4126" d="M359.32,270.432Z" transform="translate(-305.832 -227.036)" fill="#dfe0e1"/>
      <path id="Path_4127" data-name="Path 4127" d="M367.066,266.79l-.017.017a1.442,1.442,0,0,0-.2-.068A.671.671,0,0,1,367.066,266.79Z" transform="translate(-308.161 -225.894)" fill="#dfe0e1"/>
      <path id="Path_4128" data-name="Path 4128" d="M382.735,299.421c-.458.158-.9.282-1.355.423-.282.088-.581.175-.863.264-1.391.422-2.8.81-4.207,1.2l-.633.158q-1.664.449-3.327.845a25.442,25.442,0,0,0-1.056-3.538,3.892,3.892,0,0,0-.141-.423,14.053,14.053,0,0,0-4.4-6.249c5.211-1.109,5.827-1.215,5.827-1.215,1.513-.352,3.01-.722,4.507-1.109a22.083,22.083,0,0,1,2.623,3.327,24.864,24.864,0,0,1,1.619,2.817l.106.211c.053.106.106.229.159.335.158.316.3.651.422.968a1.106,1.106,0,0,1,.106.282,15.139,15.139,0,0,1,.546,1.5A.974.974,0,0,1,382.735,299.421Z" transform="translate(-308.132 -233.018)" fill="#d4d6d7"/>
      <path id="Path_4129" data-name="Path 4129" d="M338.184,298.755c-.123.511-.123,1.145-.264,1.655a15.367,15.367,0,0,1-1.2,2.341,10.9,10.9,0,0,1-.933,1.286,12.5,12.5,0,0,1-1.285,1.461,18.584,18.584,0,0,1-2.2,1.813,12.234,12.234,0,0,1-1.462.845c-4.277.475-8.626.792-12.921.845-.352,0-.687,0-1.039.018a11.941,11.941,0,0,1-7.992-4.7,15.283,15.283,0,0,1-2.869-8.256c.352.035.651.07,1.109.124.546.07,1.074.123,1.655.176,1.144.088,2.271.175,3.4.264,1.743.106,3.486.193,5.21.246a10.721,10.721,0,0,0,1.62,4.049,5.849,5.849,0,0,0,5.492,2.552A8.913,8.913,0,0,0,330,301.554a16.565,16.565,0,0,0,4.471-4.594,2.13,2.13,0,0,1,.651-.774h.017c.441-.053.881-.088,1.3-.141a2.169,2.169,0,0,1,.968.528A2.916,2.916,0,0,1,338.184,298.755Z" transform="translate(-289.352 -234.956)" fill="#d4d6d7"/>
      <path id="Path_4130" data-name="Path 4130" d="M387.134,301.142c-1.531.247-3.767.581-4.013.564-.194-.018-.352-.388.528-.616a16.409,16.409,0,0,1,3.38-.229A1.107,1.107,0,0,1,387.134,301.142Z" transform="translate(-313.147 -236.446)" fill="#fff"/>
      <path id="Path_4131" data-name="Path 4131" d="M365.422,293.31c.017.018,2.5,1.866,2.8,2.112a40.01,40.01,0,0,0-6.637-.845,3.89,3.89,0,0,0-.141-.423,14.051,14.051,0,0,0-4.4-6.249,12.277,12.277,0,0,0-1.232-.916,15.079,15.079,0,0,0-8.045-2.306c-1.919,0-4.225.774-7.165,2.429l-5.246,2.57v-2.57l5.6-7.482,2.535-3.415c2.64.123,5.175.176,7.252.123l-1.073,1.074-2.535,2.552a15.3,15.3,0,0,1,4.26-1.073c.247-.035.475-.07.722-.088a22.344,22.344,0,0,1,4.823.74,21.1,21.1,0,0,1,4.753,1.953,19.776,19.776,0,0,1,5.686,4.085A22.077,22.077,0,0,1,370,288.909a24.853,24.853,0,0,1,1.619,2.817C369.91,292.148,365.422,293.31,365.422,293.31Z" transform="translate(-298.423 -228.825)" fill="#fff"/>
      <path id="Path_4132" data-name="Path 4132" d="M337.386,288.939a2.292,2.292,0,0,0-.973-.528,1.722,1.722,0,0,0-.563-.1,1.87,1.87,0,0,0-.738.243h-.017a2.127,2.127,0,0,0-.646.772,16.646,16.646,0,0,1-4.474,4.6,8.917,8.917,0,0,1-5.49,1.913,5.846,5.846,0,0,1-5.5-2.552,10.8,10.8,0,0,1-1.62-4.046,11.193,11.193,0,0,1-.176-2.586v-13.38a12.024,12.024,0,0,0-2.779-1.2,12.923,12.923,0,0,0-5.683.756,8.241,8.241,0,0,0-2.787-1.461v15.286c0,.613.017,1.192.059,1.779a15.251,15.251,0,0,0,2.863,8.252c2.325.3,4.667.528,7.009.638,1.007.05,6.606,1.225,6.606,1.225a6.346,6.346,0,0,1,.932-.629,19.11,19.11,0,0,1,2.443-1.251c1.94-.772,4.281-1.268,5.935-.05a6.586,6.586,0,0,0-.948,1.444c-.285.664-.16,1.226,1.46.756a11.383,11.383,0,0,0,2.183-.948,13.919,13.919,0,0,0,1.284-1.46c-.5.05-1.007.084-1.637.134a7.918,7.918,0,0,1,2.569-1.427,15.068,15.068,0,0,0,1.2-2.342c.134-.5.134-1.142.26-1.654A2.9,2.9,0,0,0,337.386,288.939Zm-21.162,5.087c1.284.076,1.922.093,3.207.126A7.693,7.693,0,0,1,316.225,294.026Z" transform="translate(-289.327 -227.326)" fill="#fff"/>
      <path id="Path_4133" data-name="Path 4133" d="M387.833,298.974c-.316.247-.6.493-.158.4.106-.017.211-.052.317-.07C387.938,299.2,387.886,299.08,387.833,298.974Z" transform="translate(-314.532 -235.862)" fill="#fff"/>
      <path id="Path_4134" data-name="Path 4134" d="M335.173,312.74c4.139.638.01-.01,0,0Z" transform="translate(-298.366 -240.119)" fill="#fff"/>
      <path id="Path_4135" data-name="Path 4135" d="M335.173,312.733Z" transform="translate(-298.366 -240.113)" fill="#fff"/>
      <path id="Path_4136" data-name="Path 4136" d="M358.079,284.315a34.526,34.526,0,0,1-.42,5.346,31.715,31.715,0,0,1-2.61,8.453,3.1,3.1,0,0,1-.176.386,20.784,20.784,0,0,1-9.712,9.712,33.148,33.148,0,0,1-14.052,3.207c-.528,0-1.041-.017-1.545-.033H329.5a28.405,28.405,0,0,1-4.994-.546,19.1,19.1,0,0,1-7.076-2.695,13.22,13.22,0,0,1-2.569-2.1c-.411-.42-.781-.823-1.133-1.242,0-.017-.017-.017-.017-.042-.033-.034-.067-.084-.1-.117-.352-.445-.688-.865-.99-1.3-.278-.428-.546-.831-.772-1.25a3.707,3.707,0,0,1-.244-.428v-.017a5.758,5.758,0,0,1-.3-.545,9.575,9.575,0,0,1-.462-1.041,14.627,14.627,0,0,1-1.091-5.523,8.03,8.03,0,0,1,.9-3.836,5.59,5.59,0,0,1,2.434-2.434,7.8,7.8,0,0,1,3.836-.9,8.118,8.118,0,0,1,3.819.9,7.236,7.236,0,0,1,2.426,2.434,7.574,7.574,0,0,1,.9,3.836,7.109,7.109,0,0,1-1.226,4.415c-.025.017-.025.041-.041.059a6.23,6.23,0,0,1-3.081,2.3,8.934,8.934,0,0,0,4.86,3.064,22.714,22.714,0,0,0,6.656.9,14.158,14.158,0,0,0,13.8-9.838c.177-.479.336-.948.462-1.427a32.92,32.92,0,0,0,1.335-9.577c.017-.722.017-1.444-.017-2.166.017-.017.017-.033,0-.067,0-.193-.017-.386-.034-.579V281.6a26.685,26.685,0,0,0-.529-4c-.033-.251-.092-.479-.142-.705a24.492,24.492,0,0,0-1.058-3.542,2.784,2.784,0,0,0-.143-.419,14,14,0,0,0-4.4-6.254,12.005,12.005,0,0,0-1.234-.915,15.1,15.1,0,0,0-8.042-2.3c-1.922,0-4.222.772-7.168,2.426l-5.246,2.569V265.9l5.6-7.479L326.953,255l2.946-3.928,1.755-2.359,4.491-6,6.077-8.134H309.754v32.359a11.2,11.2,0,0,0,.176,2.586,10.8,10.8,0,0,0,1.62,4.046,5.846,5.846,0,0,0,5.5,2.552,8.918,8.918,0,0,0,5.489-1.913,16.646,16.646,0,0,0,4.474-4.6,2.128,2.128,0,0,1,.647-.772h.017a1.87,1.87,0,0,1,.738-.243,1.722,1.722,0,0,1,.563.1,2.292,2.292,0,0,1,.973.528,2.9,2.9,0,0,1,.772,2.183c-.126.512-.126,1.15-.26,1.654a15.073,15.073,0,0,1-1.2,2.342,11.5,11.5,0,0,1-.932,1.293,13.931,13.931,0,0,1-1.284,1.46,20.492,20.492,0,0,1-2.2,1.813,14.979,14.979,0,0,1-7.8,2.426,35.585,35.585,0,0,1-7.622-.722,13.5,13.5,0,0,1-6.959-3.484,14.286,14.286,0,0,1-1.041-1.217,15.25,15.25,0,0,1-2.862-8.252c-.042-.587-.059-1.167-.059-1.779v-32.6H281.893v-6.019h16.612V214.509l-3.836-3.837v-3.064h10.988l4.1,2.166v18.543l42.835-.126,4.155,4.172.05.05-10.123,10.174-1.6,1.62-1.209,1.217L340.8,248.5l-.017.017-.16.159-2.82,2.82-.915.932-.848.84-1.83,1.855-1.074,1.066-2.535,2.561a14.865,14.865,0,0,1,4.264-1.075,7.173,7.173,0,0,1,.722-.092,22.726,22.726,0,0,1,4.819.738,21.215,21.215,0,0,1,4.759,1.956,19.7,19.7,0,0,1,5.683,4.088,22.269,22.269,0,0,1,2.627,3.325,24.457,24.457,0,0,1,1.612,2.812c.042.075.076.142.109.218.05.1.109.227.16.327a9.682,9.682,0,0,1,.42.974.916.916,0,0,1,.109.277c.21.5.386.991.546,1.5a.89.89,0,0,1,.067.21,5.311,5.311,0,0,1,.193.646,8,8,0,0,1,.3,1.133c.067.277.142.562.193.84.068.352.143.7.21,1.04.093.546.176,1.075.269,1.6A31.923,31.923,0,0,1,358.079,284.315Z" transform="translate(-281.89 -207.609)" fill="none"/>
    </g>
    <text id="Tezos_India" data-name="Tezos India" transform="translate(101.617 73.273)" fill="#fff" stroke="#fff" stroke-miterlimit="10" stroke-width="0.25" font-size="54" font-family="Museo100-Regular, 'Museo 100'"><tspan x="0" y="0">Tezos India</tspan></text>
  </g>
</svg>
