<svg xmlns="http://www.w3.org/2000/svg" width="32.991" height="23.768" viewBox="0 0 32.991 23.768"><defs><style>.a{fill:#858a8f;}</style></defs><g transform="translate(-841 -7294)"><path class="a" d="M857.511,7317.768c-.1,0-10.381-.008-12.922-.712a4.113,4.113,0,0,1-1.813-1.091,4.308,4.308,0,0,1-1.058-1.864,47.345,47.345,0,0,1,0-16.429,4.292,4.292,0,0,1,1.058-1.868,4.135,4.135,0,0,1,1.813-1.093c2.469-.691,11.807-.711,12.864-.711h.057c.1,0,10.378.008,12.92.711a4.117,4.117,0,0,1,1.813,1.093,4.292,4.292,0,0,1,1.06,1.868,49.447,49.447,0,0,1,0,16.426,4.316,4.316,0,0,1-1.06,1.868,4.1,4.1,0,0,1-1.813,1.091C867.861,7317.759,857.614,7317.768,857.511,7317.768Zm-3.3-16.984h0v10.2l8.615-5.095-8.615-5.105Z"/></g></svg>